<svg width="24" height="26" viewBox="0 0 24 26" fill="none" xmlns="http://www.w3.org/2000/svg">
<path d="M22.5162 17.7323V8.1696C22.5157 7.75037 22.4051 7.33861 22.1953 6.97565C21.9855 6.61269 21.6839 6.31128 21.3208 6.10166L12.9534 1.32029C12.59 1.11046 12.1777 1 11.7581 1C11.3384 1 10.9262 1.11046 10.5627 1.32029L2.19534 6.10166C1.83227 6.31128 1.53071 6.61269 1.3209 6.97565C1.1111 7.33861 1.00043 7.75037 1 8.1696V17.7323C1.00043 18.1516 1.1111 18.5633 1.3209 18.9263C1.53071 19.2893 1.83227 19.5907 2.19534 19.8003L10.5627 24.5817C10.9262 24.7915 11.3384 24.902 11.7581 24.902C12.1777 24.902 12.59 24.7915 12.9534 24.5817L21.3208 19.8003C21.6839 19.5907 21.9855 19.2893 22.1953 18.9263C22.4051 18.5633 22.5157 18.1516 22.5162 17.7323Z" stroke="white" stroke-width="2" stroke-linecap="round" stroke-linejoin="round"/>
<path d="M6.37891 3.63916L11.7579 6.74705L17.137 3.63916" stroke="white" stroke-width="2" stroke-linecap="round" stroke-linejoin="round"/>
<path d="M6.37904 22.2626V16.0588L1 12.9509" stroke="white" stroke-width="2" stroke-linecap="round" stroke-linejoin="round"/>
<path d="M22.5158 12.9509L17.1367 16.0588V22.2626" stroke="white" stroke-width="2" stroke-linecap="round" stroke-linejoin="round"/>
<path d="M1.32227 6.92627L11.7576 12.9628L22.1929 6.92627" stroke="white" stroke-width="2" stroke-linecap="round" stroke-linejoin="round"/>
<path d="M11.7578 25V12.9509" stroke="white" stroke-width="2" stroke-linecap="round" stroke-linejoin="round"/>
</svg>
