<svg width="400" height="7" viewBox="0 0 400 7" fill="none" xmlns="http://www.w3.org/2000/svg">
<path d="M1.5 1C1.5 0.723858 1.27614 0.5 1 0.5C0.723858 0.5 0.5 0.723858 0.5 1L1.5 1ZM0.5 1L0.5 7L1.5 7L1.5 1L0.5 1Z" fill="black"/>
<path d="M105.5 1C105.5 0.723858 105.276 0.5 105 0.5C104.724 0.5 104.5 0.723858 104.5 1L105.5 1ZM104.5 1L104.5 7L105.5 7L105.5 1L104.5 1Z" fill="black"/>
<path d="M209.5 1C209.5 0.723858 209.276 0.5 209 0.5C208.724 0.5 208.5 0.723858 208.5 1L209.5 1ZM208.5 1L208.5 7L209.5 7L209.5 1L208.5 1Z" fill="black"/>
<path d="M313.5 1C313.5 0.723858 313.276 0.5 313 0.5C312.724 0.5 312.5 0.723858 312.5 1L313.5 1ZM312.5 1L312.5 7L313.5 7L313.5 1L312.5 1Z" fill="black"/>
</svg>
