<svg width="51" height="51" viewBox="0 0 51 51" fill="none" xmlns="http://www.w3.org/2000/svg">
<rect x="1" y="1" width="49" height="49" rx="24.5" stroke="white" stroke-opacity="0.25"/>
<path fill-rule="evenodd" clip-rule="evenodd" d="M31.5 17.5H19.5C18.397 17.5 17.5 18.397 17.5 19.5V31.5C17.5 32.603 18.397 33.5 19.5 33.5H25.5V28H23.5V25.5H25.5V23.5C25.5 22.7044 25.8161 21.9413 26.3787 21.3787C26.9413 20.8161 27.7044 20.5 28.5 20.5H30.5V23H29.5C28.948 23 28.5 22.948 28.5 23.5V25.5H31L30 28H28.5V33.5H31.5C32.603 33.5 33.5 32.603 33.5 31.5V19.5C33.5 18.397 32.603 17.5 31.5 17.5Z" fill="black"/>
</svg>
