<svg width="282" height="55" viewBox="0 0 282 55" fill="none" xmlns="http://www.w3.org/2000/svg">
<path d="M250.566 53.946V46.694H268.77C269.658 46.694 270.423 46.4967 271.064 46.102C271.755 45.7073 272.273 45.1893 272.618 44.548C273.013 43.9067 273.21 43.2407 273.21 42.55C273.21 41.7607 273.038 41.07 272.692 40.478C272.347 39.886 271.854 39.4173 271.212 39.072C270.571 38.6773 269.831 38.48 268.992 38.48H261.592C259.175 38.48 257.029 38.0853 255.154 37.296C253.28 36.5067 251.8 35.298 250.714 33.67C249.629 31.9927 249.086 29.896 249.086 27.38C249.086 25.3573 249.58 23.5073 250.566 21.83C251.602 20.1527 252.984 18.796 254.71 17.76C256.437 16.724 258.386 16.206 260.556 16.206H278.094V23.458H261.37C260.236 23.458 259.298 23.828 258.558 24.568C257.818 25.2587 257.448 26.122 257.448 27.158C257.448 28.1447 257.818 29.008 258.558 29.748C259.298 30.488 260.285 30.858 261.518 30.858H268.696C271.41 30.858 273.728 31.2773 275.652 32.116C277.576 32.9547 279.032 34.2127 280.018 35.89C281.054 37.5673 281.572 39.6887 281.572 42.254C281.572 44.326 281.054 46.2747 280.018 48.1C278.982 49.876 277.552 51.3067 275.726 52.392C273.95 53.428 271.928 53.946 269.658 53.946H250.566Z" fill="white"/>
<path d="M227.892 53.946C223.649 53.946 219.925 53.1567 216.718 51.578C213.561 49.95 211.094 47.73 209.318 44.918C207.542 42.0567 206.654 38.776 206.654 35.076C206.654 31.1787 207.443 27.75 209.022 24.79C210.601 21.83 212.771 19.5113 215.534 17.834C218.297 16.1567 221.479 15.318 225.08 15.318C229.125 15.318 232.455 16.1813 235.07 17.908C237.685 19.6347 239.609 21.9533 240.842 24.864C242.125 27.7747 242.766 31.0307 242.766 34.632C242.766 35.1253 242.741 35.6927 242.692 36.334C242.643 36.9753 242.569 37.4687 242.47 37.814H215.682C215.978 39.7873 216.693 41.44 217.828 42.772C218.963 44.0547 220.393 45.0413 222.12 45.732C223.847 46.3733 225.771 46.694 227.892 46.694H238.03V53.946H227.892ZM215.608 32.042H234.256C234.207 31.1047 234.059 30.1673 233.812 29.23C233.615 28.2927 233.269 27.4047 232.776 26.566C232.332 25.7273 231.74 25.012 231 24.42C230.309 23.7787 229.471 23.2853 228.484 22.94C227.497 22.5453 226.363 22.348 225.08 22.348C223.6 22.348 222.293 22.644 221.158 23.236C220.023 23.7787 219.061 24.5187 218.272 25.456C217.483 26.344 216.866 27.38 216.422 28.564C216.027 29.6987 215.756 30.858 215.608 32.042Z" fill="white"/>
<path d="M196.797 53.946C192.9 53.946 189.422 53.1073 186.363 51.43C183.304 49.7527 180.887 47.508 179.111 44.696C177.335 41.8347 176.447 38.628 176.447 35.076C176.447 31.524 177.335 28.342 179.111 25.53C180.887 22.6687 183.304 20.3993 186.363 18.722C189.422 17.0447 192.9 16.206 196.797 16.206H201.385V23.458H196.649C194.38 23.458 192.357 23.976 190.581 25.012C188.854 25.9987 187.498 27.38 186.511 29.156C185.524 30.932 185.031 32.9053 185.031 35.076C185.031 37.2467 185.524 39.22 186.511 40.996C187.498 42.772 188.854 44.178 190.581 45.214C192.357 46.2007 194.38 46.694 196.649 46.694H201.385V53.946H196.797Z" fill="white"/>
<path d="M146.432 54.834C142.831 54.834 139.723 53.946 137.109 52.17C134.494 50.394 132.471 48.026 131.04 45.066C129.659 42.0567 128.969 38.7513 128.969 35.15C128.969 31.4007 129.758 28.046 131.337 25.086C132.965 22.0767 135.259 19.7087 138.219 17.982C141.228 16.206 144.805 15.318 148.949 15.318C153.043 15.318 156.521 16.206 159.383 17.982C162.293 19.7087 164.513 22.0767 166.042 25.086C167.621 28.046 168.411 31.3513 168.411 35.002V53.946H159.9V46.916H159.753C159.013 48.2973 158.051 49.6047 156.867 50.838C155.682 52.022 154.227 52.984 152.501 53.724C150.774 54.464 148.751 54.834 146.432 54.834ZM148.727 47.582C150.947 47.582 152.871 47.0393 154.499 45.954C156.176 44.8193 157.458 43.3147 158.346 41.44C159.284 39.516 159.753 37.37 159.753 35.002C159.753 32.634 159.309 30.5373 158.421 28.712C157.533 26.8373 156.274 25.3573 154.646 24.272C153.018 23.1373 151.07 22.57 148.801 22.57C146.433 22.57 144.41 23.1373 142.732 24.272C141.055 25.3573 139.773 26.8373 138.885 28.712C137.997 30.5867 137.553 32.708 137.553 35.076C137.553 37.3947 137.997 39.516 138.885 41.44C139.773 43.3147 141.03 44.8193 142.658 45.954C144.336 47.0393 146.359 47.582 148.727 47.582Z" fill="white"/>
<path d="M105.381 53.946V26.936C105.381 23.5813 106.318 20.9667 108.193 19.092C110.117 17.168 112.756 16.206 116.111 16.206H125.213V23.458H117.665C116.481 23.458 115.544 23.8033 114.853 24.494C114.212 25.1847 113.891 26.122 113.891 27.306V53.946H105.381Z" fill="white"/>
<path d="M59.427 53.946V32.19C59.427 28.934 60.167 26.048 61.647 23.532C63.127 20.9667 65.2237 18.9687 67.937 17.538C70.6503 16.058 73.8323 15.318 77.483 15.318C81.1337 15.318 84.291 16.058 86.955 17.538C89.6683 18.9687 91.765 20.9667 93.245 23.532C94.725 26.048 95.465 28.934 95.465 32.19V53.946H87.029V32.264C87.029 30.34 86.585 28.6627 85.697 27.232C84.809 25.752 83.625 24.6173 82.145 23.828C80.7143 22.9893 79.1357 22.57 77.409 22.57C75.7317 22.57 74.153 22.9893 72.673 23.828C71.2423 24.6173 70.083 25.752 69.195 27.232C68.3563 28.6627 67.937 30.34 67.937 32.264V53.946H59.427Z" fill="white"/>
<path d="M40.7102 53.946V16.206H49.2202V53.946H40.7102ZM44.9282 10.952C43.4482 10.952 42.1655 10.4093 41.0802 9.324C39.9949 8.23867 39.4522 6.956 39.4522 5.476C39.4522 3.996 39.9949 2.71333 41.0802 1.628C42.1655 0.542667 43.4482 0 44.9282 0C46.4575 0 47.7402 0.542667 48.7762 1.628C49.8615 2.71333 50.4042 3.996 50.4042 5.476C50.4042 6.956 49.8615 8.23867 48.7762 9.324C47.7402 10.4093 46.4575 10.952 44.9282 10.952Z" fill="white"/>
<path d="M0.158813 53.946V16.428C0.158813 13.7147 0.800147 11.2973 2.08281 9.176C3.36548 7.00533 5.06748 5.30333 7.18881 4.07C9.35948 2.78733 11.8015 2.146 14.5148 2.146H33.0148V9.916H15.4768C13.6021 9.916 12.0481 10.5573 10.8148 11.84C9.63081 13.0733 9.03881 14.6027 9.03881 16.428V25.9H30.4248V33.67H9.03881V53.946H0.158813Z" fill="white"/>
</svg>
