<svg width="51" height="51" viewBox="0 0 51 51" fill="none" xmlns="http://www.w3.org/2000/svg">
<rect x="1" y="1" width="49" height="49" rx="24.5" stroke="white" stroke-opacity="0.25"/>
<path d="M21.1409 24.2168V27.0435H25.4713C25.351 28.1862 24.2082 30.3514 21.1409 30.3514C18.5547 30.3514 16.4497 28.1862 16.4497 25.5399C16.4497 22.8936 18.4344 20.7284 21.0206 20.7284C22.5242 20.7284 23.5467 21.3299 24.088 21.8711L26.193 19.8864C25.1142 18.8627 23.756 18.1819 22.2903 17.9302C20.8245 17.6785 19.3171 17.8672 17.9586 18.4724C16.6001 19.0776 15.4516 20.0722 14.6585 21.3302C13.8653 22.5882 13.4631 24.0532 13.5027 25.5399C13.5027 29.75 16.9309 33.1782 21.1409 33.1782C25.5915 33.1782 28.4784 29.9905 28.4784 25.6602L28.3582 24.2168" fill="black"/>
<path fill-rule="evenodd" clip-rule="evenodd" d="M34.8236 26.1113V28.7877H33.0794V26.1113H30.403V24.3671H33.0794V21.6907H34.8236V24.3671H37.5V26.1113H34.8236Z" fill="black"/>
</svg>
