<svg width="25" height="17" viewBox="0 0 25 17" fill="none" xmlns="http://www.w3.org/2000/svg">
<path d="M8.14091 7.21675V10.0435H12.4713C12.351 11.1862 11.2082 13.3514 8.14091 13.3514C5.55474 13.3514 3.44971 11.1862 3.44971 8.53991C3.44971 5.89359 5.43445 3.72842 8.02063 3.72842C9.52422 3.72842 10.5467 4.32985 11.088 4.87115L13.193 2.88641C12.1142 1.86269 10.756 1.18192 9.29029 0.930228C7.82455 0.678536 6.31708 0.867227 4.95859 1.47243C3.6001 2.07763 2.45163 3.07216 1.65846 4.33019C0.865295 5.58822 0.463069 7.05324 0.502666 8.53991C0.502666 12.75 3.93086 16.1782 8.14091 16.1782C12.5915 16.1782 15.4784 12.9905 15.4784 8.6602L15.3582 7.21675" fill="white"/>
<path fill-rule="evenodd" clip-rule="evenodd" d="M21.8236 9.11128V11.7877H20.0794V9.11128H17.403V7.36712H20.0794V4.69072H21.8236V7.36712H24.5V9.11128H21.8236Z" fill="white"/>
</svg>
