<svg width="17" height="17" viewBox="0 0 17 17" fill="none" xmlns="http://www.w3.org/2000/svg">
<path d="M8.5 1.94578C10.6205 1.94578 10.9096 1.94578 11.7771 1.94578C12.5482 1.94578 12.9337 2.13855 13.2229 2.23494C13.6084 2.42771 13.8976 2.5241 14.1867 2.81325C14.4759 3.10241 14.6687 3.39157 14.7651 3.77711C14.8614 4.06627 14.9578 4.45181 15.0542 5.22289C15.0542 6.09036 15.0542 6.28313 15.0542 8.5C15.0542 10.7169 15.0542 10.9096 15.0542 11.7771C15.0542 12.5482 14.8614 12.9337 14.7651 13.2229C14.5723 13.6084 14.4759 13.8976 14.1867 14.1867C13.8976 14.4759 13.6084 14.6687 13.2229 14.7651C12.9337 14.8614 12.5482 14.9578 11.7771 15.0542C10.9096 15.0542 10.7169 15.0542 8.5 15.0542C6.28313 15.0542 6.09036 15.0542 5.22289 15.0542C4.45181 15.0542 4.06627 14.8614 3.77711 14.7651C3.39157 14.5723 3.10241 14.4759 2.81325 14.1867C2.5241 13.8976 2.33133 13.6084 2.23494 13.2229C2.13855 12.9337 2.04217 12.5482 1.94578 11.7771C1.94578 10.9096 1.94578 10.7169 1.94578 8.5C1.94578 6.28313 1.94578 6.09036 1.94578 5.22289C1.94578 4.45181 2.13855 4.06627 2.23494 3.77711C2.42771 3.39157 2.5241 3.10241 2.81325 2.81325C3.10241 2.5241 3.39157 2.33133 3.77711 2.23494C4.06627 2.13855 4.45181 2.04217 5.22289 1.94578C6.09036 1.94578 6.37952 1.94578 8.5 1.94578ZM8.5 0.5C6.28313 0.5 6.09036 0.5 5.22289 0.5C4.35542 0.5 3.77711 0.692772 3.29518 0.885543C2.81325 1.07831 2.33133 1.36747 1.8494 1.8494C1.36747 2.33133 1.1747 2.71687 0.885543 3.29518C0.692772 3.77711 0.596386 4.35542 0.5 5.22289C0.5 6.09036 0.5 6.37952 0.5 8.5C0.5 10.7169 0.5 10.9096 0.5 11.7771C0.5 12.6446 0.692772 13.2229 0.885543 13.7048C1.07831 14.1867 1.36747 14.6687 1.8494 15.1506C2.33133 15.6325 2.71687 15.8253 3.29518 16.1145C3.77711 16.3072 4.35542 16.4036 5.22289 16.5C6.09036 16.5 6.37952 16.5 8.5 16.5C10.6205 16.5 10.9096 16.5 11.7771 16.5C12.6446 16.5 13.2229 16.3072 13.7048 16.1145C14.1867 15.9217 14.6687 15.6325 15.1506 15.1506C15.6325 14.6687 15.8253 14.2831 16.1145 13.7048C16.3072 13.2229 16.4036 12.6446 16.5 11.7771C16.5 10.9096 16.5 10.6205 16.5 8.5C16.5 6.37952 16.5 6.09036 16.5 5.22289C16.5 4.35542 16.3072 3.77711 16.1145 3.29518C15.9217 2.81325 15.6325 2.33133 15.1506 1.8494C14.6687 1.36747 14.2831 1.1747 13.7048 0.885543C13.2229 0.692772 12.6446 0.596386 11.7771 0.5C10.9096 0.5 10.7169 0.5 8.5 0.5Z" fill="white"/>
<path d="M8.5 4.35542C6.18675 4.35542 4.35542 6.18675 4.35542 8.5C4.35542 10.8133 6.18675 12.6446 8.5 12.6446C10.8133 12.6446 12.6446 10.8133 12.6446 8.5C12.6446 6.18675 10.8133 4.35542 8.5 4.35542ZM8.5 11.1988C7.05422 11.1988 5.80121 10.0422 5.80121 8.5C5.80121 7.05422 6.95783 5.80121 8.5 5.80121C9.94578 5.80121 11.1988 6.95783 11.1988 8.5C11.1988 9.94578 9.94578 11.1988 8.5 11.1988Z" fill="white"/>
<path d="M12.741 5.22289C13.2733 5.22289 13.7048 4.79136 13.7048 4.25904C13.7048 3.72671 13.2733 3.29518 12.741 3.29518C12.2086 3.29518 11.7771 3.72671 11.7771 4.25904C11.7771 4.79136 12.2086 5.22289 12.741 5.22289Z" fill="white"/>
</svg>
