<svg width="51" height="51" viewBox="0 0 51 51" fill="none" xmlns="http://www.w3.org/2000/svg">
<rect x="1" y="1" width="49" height="49" rx="24.5" stroke="white" stroke-opacity="0.25"/>
<path d="M25.5 18.9458C27.6205 18.9458 27.9096 18.9458 28.7771 18.9458C29.5482 18.9458 29.9337 19.1386 30.2229 19.2349C30.6084 19.4277 30.8976 19.5241 31.1867 19.8133C31.4759 20.1024 31.6687 20.3916 31.7651 20.7771C31.8614 21.0663 31.9578 21.4518 32.0542 22.2229C32.0542 23.0904 32.0542 23.2831 32.0542 25.5C32.0542 27.7169 32.0542 27.9096 32.0542 28.7771C32.0542 29.5482 31.8614 29.9337 31.7651 30.2229C31.5723 30.6084 31.4759 30.8976 31.1867 31.1867C30.8976 31.4759 30.6084 31.6687 30.2229 31.7651C29.9337 31.8614 29.5482 31.9578 28.7771 32.0542C27.9096 32.0542 27.7169 32.0542 25.5 32.0542C23.2831 32.0542 23.0904 32.0542 22.2229 32.0542C21.4518 32.0542 21.0663 31.8614 20.7771 31.7651C20.3916 31.5723 20.1024 31.4759 19.8133 31.1867C19.5241 30.8976 19.3313 30.6084 19.2349 30.2229C19.1386 29.9337 19.0422 29.5482 18.9458 28.7771C18.9458 27.9096 18.9458 27.7169 18.9458 25.5C18.9458 23.2831 18.9458 23.0904 18.9458 22.2229C18.9458 21.4518 19.1386 21.0663 19.2349 20.7771C19.4277 20.3916 19.5241 20.1024 19.8133 19.8133C20.1024 19.5241 20.3916 19.3313 20.7771 19.2349C21.0663 19.1386 21.4518 19.0422 22.2229 18.9458C23.0904 18.9458 23.3795 18.9458 25.5 18.9458ZM25.5 17.5C23.2831 17.5 23.0904 17.5 22.2229 17.5C21.3554 17.5 20.7771 17.6928 20.2952 17.8855C19.8133 18.0783 19.3313 18.3675 18.8494 18.8494C18.3675 19.3313 18.1747 19.7169 17.8855 20.2952C17.6928 20.7771 17.5964 21.3554 17.5 22.2229C17.5 23.0904 17.5 23.3795 17.5 25.5C17.5 27.7169 17.5 27.9096 17.5 28.7771C17.5 29.6446 17.6928 30.2229 17.8855 30.7048C18.0783 31.1867 18.3675 31.6687 18.8494 32.1506C19.3313 32.6325 19.7169 32.8253 20.2952 33.1145C20.7771 33.3072 21.3554 33.4036 22.2229 33.5C23.0904 33.5 23.3795 33.5 25.5 33.5C27.6205 33.5 27.9096 33.5 28.7771 33.5C29.6446 33.5 30.2229 33.3072 30.7048 33.1145C31.1867 32.9217 31.6687 32.6325 32.1506 32.1506C32.6325 31.6687 32.8253 31.2831 33.1145 30.7048C33.3072 30.2229 33.4036 29.6446 33.5 28.7771C33.5 27.9096 33.5 27.6205 33.5 25.5C33.5 23.3795 33.5 23.0904 33.5 22.2229C33.5 21.3554 33.3072 20.7771 33.1145 20.2952C32.9217 19.8133 32.6325 19.3313 32.1506 18.8494C31.6687 18.3675 31.2831 18.1747 30.7048 17.8855C30.2229 17.6928 29.6446 17.5964 28.7771 17.5C27.9096 17.5 27.7169 17.5 25.5 17.5Z" fill="black"/>
<path d="M25.5 21.3554C23.1867 21.3554 21.3554 23.1867 21.3554 25.5C21.3554 27.8133 23.1867 29.6446 25.5 29.6446C27.8133 29.6446 29.6446 27.8133 29.6446 25.5C29.6446 23.1867 27.8133 21.3554 25.5 21.3554ZM25.5 28.1988C24.0542 28.1988 22.8012 27.0422 22.8012 25.5C22.8012 24.0542 23.9578 22.8012 25.5 22.8012C26.9458 22.8012 28.1988 23.9578 28.1988 25.5C28.1988 26.9458 26.9458 28.1988 25.5 28.1988Z" fill="black"/>
<path d="M29.741 22.2229C30.2733 22.2229 30.7048 21.7914 30.7048 21.259C30.7048 20.7267 30.2733 20.2952 29.741 20.2952C29.2086 20.2952 28.7771 20.7267 28.7771 21.259C28.7771 21.7914 29.2086 22.2229 29.741 22.2229Z" fill="black"/>
</svg>
