<svg width="24" height="25" viewBox="0 0 24 25" fill="none" xmlns="http://www.w3.org/2000/svg">
<path d="M18 15.8977V9.89771C18 7.06928 18 5.65506 17.1213 4.77638C16.2426 3.89771 14.8284 3.89771 12 3.89771H8C5.17157 3.89771 3.75736 3.89771 2.87868 4.77638C2 5.65506 2 7.06928 2 9.89771V15.8977C2 18.7261 2 20.1403 2.87868 21.019C3.75736 21.8977 5.17157 21.8977 8 21.8977H20" stroke="black" stroke-width="2" stroke-linecap="round" stroke-linejoin="round"/>
<path d="M6 8.8977L14 8.89771" stroke="black" stroke-width="2" stroke-linecap="round" stroke-linejoin="round"/>
<path d="M6 12.8977L14 12.8977" stroke="black" stroke-width="2" stroke-linecap="round" stroke-linejoin="round"/>
<path d="M6 16.8977L10 16.8977" stroke="black" stroke-width="2" stroke-linecap="round" stroke-linejoin="round"/>
<path d="M18 8.89771H19C20.4142 8.89771 21.1213 8.89771 21.5607 9.33704C22 9.77638 22 10.4835 22 11.8977V19.8977C22 21.0023 21.1046 21.8977 20 21.8977C18.8954 21.8977 18 21.0023 18 19.8977V8.89771Z" stroke="black" stroke-width="2" stroke-linecap="round" stroke-linejoin="round"/>
</svg>
