<svg width="298" height="317" viewBox="0 0 298 317" fill="none" xmlns="http://www.w3.org/2000/svg">
<line x1="91.1384" y1="8.91482" x2="95.3985" y2="-2.78971" stroke="white" stroke-width="2"/>
<line x1="117.763" y1="8.36719" x2="123.991" y2="-2.41976" stroke="white" stroke-width="2"/>
<line x1="144.554" y1="7.83573" x2="152.561" y2="-1.70589" stroke="white" stroke-width="2"/>
<line x1="171.553" y1="6.93317" x2="181.094" y2="-1.07319" stroke="white" stroke-width="2"/>
<line x1="198.785" y1="5.6662" x2="209.572" y2="-0.561647" stroke="white" stroke-width="2"/>
<line x1="226.279" y1="4.81324" x2="237.984" y2="0.553138" stroke="white" stroke-width="2"/>
<line x1="254.053" y1="3.60113" x2="266.319" y2="1.43822" stroke="white" stroke-width="2"/>
<line x1="11.8355" y1="9.81916" x2="9.6726" y2="-2.44731" stroke="white" stroke-width="2"/>
<line x1="38.2227" y1="9.64551" x2="38.2227" y2="-2.81019" stroke="white" stroke-width="2"/>
<line x1="64.6402" y1="9.47186" x2="66.8031" y2="-2.79461" stroke="white" stroke-width="2"/>
<line x1="297.68" y1="4.41797" x2="285.224" y2="4.41797" stroke="white" stroke-width="2"/>
<line x1="63.115" y1="30.7117" x2="67.3751" y2="19.0072" stroke="white" stroke-width="2"/>
<line x1="89.7355" y1="30.165" x2="95.9634" y2="19.3781" stroke="white" stroke-width="2"/>
<line x1="116.527" y1="29.6326" x2="124.533" y2="20.091" stroke="white" stroke-width="2"/>
<line x1="143.525" y1="28.731" x2="153.067" y2="20.7247" stroke="white" stroke-width="2"/>
<line x1="170.762" y1="27.4631" x2="181.549" y2="21.2352" stroke="white" stroke-width="2"/>
<line x1="198.256" y1="26.6111" x2="209.96" y2="22.351" stroke="white" stroke-width="2"/>
<line x1="226.029" y1="25.398" x2="238.296" y2="23.2351" stroke="white" stroke-width="2"/>
<line x1="10.1953" y1="31.4434" x2="10.1953" y2="18.9877" stroke="white" stroke-width="2"/>
<line x1="36.6168" y1="31.2697" x2="38.7797" y2="19.0032" stroke="white" stroke-width="2"/>
<line x1="269.652" y1="26.2158" x2="257.197" y2="26.2158" stroke="white" stroke-width="2"/>
<line x1="297.365" y1="27.3676" x2="285.099" y2="25.2047" stroke="white" stroke-width="2"/>
<line x1="35.0877" y1="52.5095" x2="39.3478" y2="40.805" stroke="white" stroke-width="2"/>
<line x1="61.7121" y1="51.9619" x2="67.9399" y2="41.175" stroke="white" stroke-width="2"/>
<line x1="88.5035" y1="51.4305" x2="96.5099" y2="41.8888" stroke="white" stroke-width="2"/>
<line x1="115.502" y1="50.5289" x2="125.043" y2="42.5225" stroke="white" stroke-width="2"/>
<line x1="142.734" y1="49.2609" x2="153.521" y2="43.0331" stroke="white" stroke-width="2"/>
<line x1="170.228" y1="48.4089" x2="181.933" y2="44.1488" stroke="white" stroke-width="2"/>
<line x1="198.002" y1="47.1959" x2="210.269" y2="45.0329" stroke="white" stroke-width="2"/>
<line x1="8.58941" y1="53.0676" x2="10.7523" y2="40.8011" stroke="white" stroke-width="2"/>
<line x1="241.629" y1="48.0127" x2="229.173" y2="48.0127" stroke="white" stroke-width="2"/>
<line x1="269.338" y1="49.1655" x2="257.072" y2="47.0026" stroke="white" stroke-width="2"/>
<line x1="296.775" y1="50.2883" x2="285.071" y2="46.0282" stroke="white" stroke-width="2"/>
<line x1="7.06421" y1="74.3074" x2="11.3243" y2="62.6029" stroke="white" stroke-width="2"/>
<line x1="33.6848" y1="73.7598" x2="39.9126" y2="62.9728" stroke="white" stroke-width="2"/>
<line x1="60.4761" y1="73.2273" x2="68.4825" y2="63.6857" stroke="white" stroke-width="2"/>
<line x1="87.4744" y1="72.3258" x2="97.016" y2="64.3194" stroke="white" stroke-width="2"/>
<line x1="114.711" y1="71.0578" x2="125.498" y2="64.83" stroke="white" stroke-width="2"/>
<line x1="142.205" y1="70.2058" x2="153.909" y2="65.9457" stroke="white" stroke-width="2"/>
<line x1="169.979" y1="68.9937" x2="182.245" y2="66.8308" stroke="white" stroke-width="2"/>
<line x1="295.93" y1="72.7899" x2="285.143" y2="66.562" stroke="white" stroke-width="2"/>
<line x1="213.605" y1="69.8105" x2="201.15" y2="69.8105" stroke="white" stroke-width="2"/>
<line x1="241.315" y1="70.9633" x2="229.048" y2="68.8004" stroke="white" stroke-width="2"/>
<line x1="268.748" y1="72.0852" x2="257.043" y2="67.8251" stroke="white" stroke-width="2"/>
<line x1="5.66132" y1="95.5576" x2="11.8892" y2="84.7707" stroke="white" stroke-width="2"/>
<line x1="32.4527" y1="95.0252" x2="40.4591" y2="85.4836" stroke="white" stroke-width="2"/>
<line x1="59.451" y1="94.1236" x2="68.9926" y2="86.1172" stroke="white" stroke-width="2"/>
<line x1="86.6836" y1="92.8557" x2="97.4705" y2="86.6278" stroke="white" stroke-width="2"/>
<line x1="114.178" y1="92.0037" x2="125.882" y2="87.7436" stroke="white" stroke-width="2"/>
<line x1="141.951" y1="90.7906" x2="154.218" y2="88.6277" stroke="white" stroke-width="2"/>
<line x1="267.902" y1="94.5877" x2="257.115" y2="88.3599" stroke="white" stroke-width="2"/>
<line x1="294.853" y1="95.6557" x2="285.312" y2="87.6493" stroke="white" stroke-width="2"/>
<line x1="185.578" y1="91.6074" x2="173.122" y2="91.6074" stroke="white" stroke-width="2"/>
<line x1="213.287" y1="92.7602" x2="201.021" y2="90.5973" stroke="white" stroke-width="2"/>
<line x1="240.724" y1="93.8831" x2="229.02" y2="89.623" stroke="white" stroke-width="2"/>
<line x1="4.42536" y1="116.823" x2="12.4317" y2="107.281" stroke="white" stroke-width="2"/>
<line x1="31.4236" y1="115.92" x2="40.9652" y2="107.914" stroke="white" stroke-width="2"/>
<line x1="58.6602" y1="114.654" x2="69.4471" y2="108.426" stroke="white" stroke-width="2"/>
<line x1="86.1541" y1="113.802" x2="97.8586" y2="109.541" stroke="white" stroke-width="2"/>
<line x1="113.928" y1="112.588" x2="126.194" y2="110.426" stroke="white" stroke-width="2"/>
<line x1="239.879" y1="116.386" x2="229.092" y2="110.158" stroke="white" stroke-width="2"/>
<line x1="266.826" y1="117.453" x2="257.284" y2="109.446" stroke="white" stroke-width="2"/>
<line x1="293.578" y1="118.109" x2="285.571" y2="108.567" stroke="white" stroke-width="2"/>
<line x1="157.555" y1="113.405" x2="145.099" y2="113.405" stroke="white" stroke-width="2"/>
<line x1="185.264" y1="114.558" x2="172.997" y2="112.395" stroke="white" stroke-width="2"/>
<line x1="212.701" y1="115.681" x2="200.996" y2="111.421" stroke="white" stroke-width="2"/>
<line x1="3.40018" y1="137.718" x2="12.9418" y2="129.712" stroke="white" stroke-width="2"/>
<line x1="30.6328" y1="136.45" x2="41.4198" y2="130.223" stroke="white" stroke-width="2"/>
<line x1="58.1267" y1="135.598" x2="69.8313" y2="131.338" stroke="white" stroke-width="2"/>
<line x1="85.9006" y1="134.385" x2="98.167" y2="132.222" stroke="white" stroke-width="2"/>
<line x1="211.852" y1="138.182" x2="201.065" y2="131.955" stroke="white" stroke-width="2"/>
<line x1="238.803" y1="139.25" x2="229.261" y2="131.244" stroke="white" stroke-width="2"/>
<line x1="265.55" y1="139.905" x2="257.544" y2="130.364" stroke="white" stroke-width="2"/>
<line x1="292.146" y1="140.152" x2="285.918" y2="129.365" stroke="white" stroke-width="2"/>
<line x1="129.527" y1="135.203" x2="117.072" y2="135.203" stroke="white" stroke-width="2"/>
<line x1="157.237" y1="136.355" x2="144.97" y2="134.192" stroke="white" stroke-width="2"/>
<line x1="184.674" y1="137.478" x2="172.969" y2="133.218" stroke="white" stroke-width="2"/>
<line x1="2.60938" y1="158.248" x2="13.3963" y2="152.02" stroke="white" stroke-width="2"/>
<line x1="30.1033" y1="157.396" x2="41.8078" y2="153.136" stroke="white" stroke-width="2"/>
<line x1="57.8771" y1="156.183" x2="70.1436" y2="154.02" stroke="white" stroke-width="2"/>
<line x1="183.828" y1="159.98" x2="173.041" y2="153.752" stroke="white" stroke-width="2"/>
<line x1="210.775" y1="161.048" x2="201.234" y2="153.042" stroke="white" stroke-width="2"/>
<line x1="237.527" y1="161.703" x2="229.521" y2="152.162" stroke="white" stroke-width="2"/>
<line x1="264.118" y1="161.949" x2="257.891" y2="151.162" stroke="white" stroke-width="2"/>
<line x1="290.595" y1="162.181" x2="286.335" y2="150.476" stroke="white" stroke-width="2"/>
<line x1="101.504" y1="157" x2="89.0482" y2="157" stroke="white" stroke-width="2"/>
<line x1="129.213" y1="158.153" x2="116.947" y2="155.99" stroke="white" stroke-width="2"/>
<line x1="156.65" y1="159.276" x2="144.946" y2="155.016" stroke="white" stroke-width="2"/>
<line x1="2.07595" y1="179.193" x2="13.7805" y2="174.933" stroke="white" stroke-width="2"/>
<line x1="29.8498" y1="177.981" x2="42.1163" y2="175.818" stroke="white" stroke-width="2"/>
<line x1="155.801" y1="181.778" x2="145.014" y2="175.55" stroke="white" stroke-width="2"/>
<line x1="182.752" y1="182.845" x2="173.21" y2="174.839" stroke="white" stroke-width="2"/>
<line x1="209.503" y1="183.5" x2="201.497" y2="173.959" stroke="white" stroke-width="2"/>
<line x1="236.095" y1="183.747" x2="229.867" y2="172.96" stroke="white" stroke-width="2"/>
<line x1="262.568" y1="183.979" x2="258.308" y2="172.274" stroke="white" stroke-width="2"/>
<line x1="288.976" y1="184.199" x2="286.813" y2="171.933" stroke="white" stroke-width="2"/>
<line x1="73.4766" y1="178.798" x2="61.0209" y2="178.798" stroke="white" stroke-width="2"/>
<line x1="101.186" y1="179.951" x2="88.9193" y2="177.788" stroke="white" stroke-width="2"/>
<line x1="128.623" y1="181.073" x2="116.918" y2="176.812" stroke="white" stroke-width="2"/>
<line x1="1.82635" y1="199.778" x2="14.0928" y2="197.615" stroke="white" stroke-width="2"/>
<line x1="127.777" y1="203.575" x2="116.99" y2="197.347" stroke="white" stroke-width="2"/>
<line x1="154.724" y1="204.643" x2="145.183" y2="196.637" stroke="white" stroke-width="2"/>
<line x1="181.476" y1="205.298" x2="173.47" y2="195.756" stroke="white" stroke-width="2"/>
<line x1="208.068" y1="205.545" x2="201.84" y2="194.758" stroke="white" stroke-width="2"/>
<line x1="234.545" y1="205.776" x2="230.285" y2="194.071" stroke="white" stroke-width="2"/>
<line x1="260.953" y1="205.997" x2="258.79" y2="193.73" stroke="white" stroke-width="2"/>
<line x1="287.34" y1="205.823" x2="287.34" y2="193.368" stroke="white" stroke-width="2"/>
<line x1="45.4531" y1="200.595" x2="32.9974" y2="200.595" stroke="white" stroke-width="2"/>
<line x1="73.1623" y1="201.748" x2="60.8958" y2="199.585" stroke="white" stroke-width="2"/>
<line x1="100.599" y1="202.87" x2="88.8949" y2="198.61" stroke="white" stroke-width="2"/>
<line x1="99.75" y1="225.373" x2="88.9631" y2="219.145" stroke="white" stroke-width="2"/>
<line x1="126.701" y1="226.44" x2="117.159" y2="218.434" stroke="white" stroke-width="2"/>
<line x1="153.453" y1="227.096" x2="145.446" y2="217.554" stroke="white" stroke-width="2"/>
<line x1="180.044" y1="227.342" x2="173.816" y2="216.555" stroke="white" stroke-width="2"/>
<line x1="206.517" y1="227.573" x2="202.257" y2="215.869" stroke="white" stroke-width="2"/>
<line x1="232.925" y1="227.794" x2="230.762" y2="215.527" stroke="white" stroke-width="2"/>
<line x1="259.312" y1="227.62" x2="259.312" y2="215.164" stroke="white" stroke-width="2"/>
<line x1="285.734" y1="227.446" x2="287.897" y2="215.18" stroke="white" stroke-width="2"/>
<line x1="17.4258" y1="222.393" x2="4.97009" y2="222.393" stroke="white" stroke-width="2"/>
<line x1="45.1349" y1="223.545" x2="32.8685" y2="221.382" stroke="white" stroke-width="2"/>
<line x1="72.572" y1="224.668" x2="60.8675" y2="220.408" stroke="white" stroke-width="2"/>
<line x1="284.205" y1="248.686" x2="288.465" y2="236.982" stroke="white" stroke-width="2"/>
<line x1="71.7266" y1="247.17" x2="60.9396" y2="240.942" stroke="white" stroke-width="2"/>
<line x1="98.6736" y1="248.238" x2="89.132" y2="240.231" stroke="white" stroke-width="2"/>
<line x1="125.425" y1="248.893" x2="117.419" y2="239.351" stroke="white" stroke-width="2"/>
<line x1="152.017" y1="249.14" x2="145.789" y2="238.353" stroke="white" stroke-width="2"/>
<line x1="178.494" y1="249.37" x2="174.234" y2="237.666" stroke="white" stroke-width="2"/>
<line x1="204.902" y1="249.592" x2="202.739" y2="237.325" stroke="white" stroke-width="2"/>
<line x1="231.289" y1="249.418" x2="231.289" y2="236.962" stroke="white" stroke-width="2"/>
<line x1="257.707" y1="249.244" x2="259.87" y2="236.978" stroke="white" stroke-width="2"/>
<line x1="17.1115" y1="245.342" x2="4.84504" y2="243.179" stroke="white" stroke-width="2"/>
<line x1="44.5486" y1="246.465" x2="32.8441" y2="242.205" stroke="white" stroke-width="2"/>
<line x1="256.181" y1="270.484" x2="260.441" y2="258.78" stroke="white" stroke-width="2"/>
<line x1="282.802" y1="269.937" x2="289.03" y2="259.15" stroke="white" stroke-width="2"/>
<line x1="43.6992" y1="268.968" x2="32.9123" y2="262.74" stroke="white" stroke-width="2"/>
<line x1="70.6502" y1="270.036" x2="61.1086" y2="262.029" stroke="white" stroke-width="2"/>
<line x1="97.4019" y1="270.691" x2="89.3956" y2="261.149" stroke="white" stroke-width="2"/>
<line x1="123.993" y1="270.937" x2="117.766" y2="260.15" stroke="white" stroke-width="2"/>
<line x1="150.467" y1="271.168" x2="146.206" y2="259.464" stroke="white" stroke-width="2"/>
<line x1="176.875" y1="271.389" x2="174.712" y2="259.123" stroke="white" stroke-width="2"/>
<line x1="203.262" y1="271.216" x2="203.262" y2="258.76" stroke="white" stroke-width="2"/>
<line x1="229.683" y1="271.042" x2="231.846" y2="258.776" stroke="white" stroke-width="2"/>
<line x1="16.5213" y1="268.263" x2="4.81674" y2="264.003" stroke="white" stroke-width="2"/>
<line x1="228.154" y1="292.282" x2="232.414" y2="280.577" stroke="white" stroke-width="2"/>
<line x1="254.779" y1="291.734" x2="261.006" y2="280.947" stroke="white" stroke-width="2"/>
<line x1="281.57" y1="291.202" x2="289.576" y2="281.66" stroke="white" stroke-width="2"/>
<line x1="15.6758" y1="290.765" x2="4.88883" y2="284.538" stroke="white" stroke-width="2"/>
<line x1="42.6228" y1="291.832" x2="33.0812" y2="283.826" stroke="white" stroke-width="2"/>
<line x1="69.3746" y1="292.488" x2="61.3682" y2="282.946" stroke="white" stroke-width="2"/>
<line x1="95.966" y1="292.734" x2="89.7382" y2="281.947" stroke="white" stroke-width="2"/>
<line x1="122.443" y1="292.966" x2="118.183" y2="281.262" stroke="white" stroke-width="2"/>
<line x1="148.851" y1="293.186" x2="146.688" y2="280.92" stroke="white" stroke-width="2"/>
<line x1="175.238" y1="293.013" x2="175.238" y2="280.557" stroke="white" stroke-width="2"/>
<line x1="201.656" y1="292.839" x2="203.819" y2="280.573" stroke="white" stroke-width="2"/>
<line x1="200.131" y1="314.079" x2="204.391" y2="302.374" stroke="white" stroke-width="2"/>
<line x1="226.751" y1="313.532" x2="232.979" y2="302.745" stroke="white" stroke-width="2"/>
<line x1="253.543" y1="313" x2="261.549" y2="303.458" stroke="white" stroke-width="2"/>
<line x1="280.541" y1="312.098" x2="290.082" y2="304.092" stroke="white" stroke-width="2"/>
<line x1="14.5994" y1="313.63" x2="5.05778" y2="305.624" stroke="white" stroke-width="2"/>
<line x1="41.3511" y1="314.285" x2="33.3448" y2="304.744" stroke="white" stroke-width="2"/>
<line x1="67.9426" y1="314.532" x2="61.7147" y2="303.745" stroke="white" stroke-width="2"/>
<line x1="94.4158" y1="314.763" x2="90.1557" y2="303.058" stroke="white" stroke-width="2"/>
<line x1="120.824" y1="314.984" x2="118.661" y2="302.718" stroke="white" stroke-width="2"/>
<line x1="147.211" y1="314.811" x2="147.211" y2="302.355" stroke="white" stroke-width="2"/>
<line x1="173.632" y1="314.637" x2="175.795" y2="302.37" stroke="white" stroke-width="2"/>
</svg>
