<svg width="78" height="48" viewBox="0 0 78 48" fill="none" xmlns="http://www.w3.org/2000/svg">
<rect x="46" y="8.00018" width="32" height="32" rx="16" fill="white"/>
<path d="M73.7909 24.0002C73.7909 17.4888 68.5123 12.2102 62.0009 12.2102C55.4895 12.2102 50.2109 17.4888 50.2109 24.0002C50.2109 29.8849 54.5224 34.7625 60.1587 35.647V27.4083H57.1652V24.0002H60.1587V21.4027C60.1587 18.4479 61.919 16.8157 64.6121 16.8157C65.902 16.8157 67.2512 17.0459 67.2512 17.0459V19.9474H65.7645C64.2999 19.9474 63.8431 20.8562 63.8431 21.7887V24.0002H67.113L66.5903 27.4083H63.8431V35.647C69.4795 34.7625 73.7909 29.885 73.7909 24.0002Z" fill="#1877F2"/>
<path d="M66.5911 27.4083L67.1138 24.0003H63.8439V21.7887C63.8439 20.8562 64.3007 19.9475 65.7653 19.9475H67.252V17.046C67.252 17.046 65.9028 16.8157 64.6128 16.8157C61.9198 16.8157 60.1596 18.4479 60.1596 21.4028V24.0003H57.166V27.4083H60.1596V35.647C60.769 35.7425 61.3849 35.7904 62.0018 35.7903C62.6186 35.7904 63.2345 35.7425 63.8439 35.647V27.4083H66.5911Z" fill="white"/>
<g filter="url(#filter0_d_470_6459)">
<rect x="22" y="6.00018" width="35" height="35" rx="17.5" fill="white" shape-rendering="crispEdges"/>
<path d="M39.5031 20.7592L45.0562 33.9347H41.4167L39.7553 29.7388H35.6915L39.5031 20.7592ZM51.2909 13.0656V33.9321L42.5731 13.0656H51.2909ZM36.4322 13.0656L27.7109 33.9321V13.0656H36.4322Z" fill="#FA0F00"/>
</g>
<g filter="url(#filter1_d_470_6459)">
<rect y="4" width="39.3" height="39.3" rx="19.65" fill="white" shape-rendering="crispEdges"/>
<path d="M15.9561 12.2786C13.5236 13.1224 11.4259 14.724 9.97106 16.8482C8.51617 18.9723 7.7808 21.507 7.87295 24.08C7.9651 26.653 8.87992 29.1286 10.483 31.1432C12.0861 33.1578 14.2931 34.6053 16.7796 35.2729C18.7955 35.7931 20.9076 35.8159 22.9342 35.3395C24.7702 34.9271 26.4676 34.045 27.8602 32.7795C29.3096 31.4222 30.3617 29.6955 30.9033 27.785C31.492 25.7075 31.5967 23.5227 31.2095 21.3984H19.8892V26.0942H26.4452C26.3142 26.8432 26.0334 27.558 25.6197 28.1959C25.2059 28.8338 24.6678 29.3817 24.0373 29.8068C23.2368 30.3363 22.3344 30.6926 21.388 30.8528C20.4388 31.0293 19.4652 31.0293 18.5161 30.8528C17.554 30.6539 16.644 30.2569 15.8438 29.687C14.5584 28.777 13.5933 27.4844 13.0861 25.9934C12.5703 24.4745 12.5703 22.8279 13.0861 21.309C13.4471 20.2443 14.0439 19.2749 14.832 18.4732C15.7339 17.5389 16.8757 16.871 18.1322 16.5429C19.3886 16.2148 20.7112 16.2391 21.9547 16.6131C22.9262 16.9113 23.8145 17.4323 24.549 18.1346C25.2882 17.3992 26.0261 16.6619 26.7628 15.9227C27.1432 15.5252 27.5578 15.1467 27.9325 14.7397C26.8114 13.6965 25.4955 12.8847 24.0602 12.3509C21.4464 11.4018 18.5864 11.3763 15.9561 12.2786Z" fill="white"/>
<path d="M15.9572 12.2786C18.5873 11.3756 21.4473 11.4005 24.0613 12.3489C25.4969 12.8864 26.8122 13.702 27.9317 14.7492C27.5513 15.1562 27.15 15.5366 26.762 15.9322C26.0241 16.6688 25.2868 17.403 24.5501 18.1346C23.8157 17.4323 22.9273 16.9113 21.9559 16.6131C20.7127 16.2377 19.3902 16.212 18.1334 16.5388C16.8766 16.8656 15.7341 17.5322 14.8312 18.4655C14.0431 19.2673 13.4463 20.2366 13.0853 21.3013L9.14258 18.2487C10.5538 15.4501 12.9973 13.3095 15.9572 12.2786Z" fill="#E33629"/>
<path d="M8.09716 21.2727C8.30908 20.2225 8.6609 19.2054 9.14322 18.2487L13.0859 21.3089C12.5701 22.8277 12.5701 24.4744 13.0859 25.9933C11.7723 27.0077 10.4581 28.0271 9.14322 29.0516C7.93578 26.6482 7.56754 23.9097 8.09716 21.2727Z" fill="#F8BD00"/>
<path d="M19.8895 21.3964H31.2098C31.597 23.5207 31.4923 25.7055 30.9036 27.783C30.362 29.6935 29.3099 31.4202 27.8605 32.7775C26.5881 31.7847 25.31 30.7995 24.0376 29.8067C24.6684 29.3812 25.2069 28.8327 25.6206 28.1941C26.0344 27.5555 26.3149 26.84 26.4455 26.0903H19.8895C19.8876 24.5269 19.8895 22.9616 19.8895 21.3964Z" fill="#587DBD"/>
<path d="M9.14258 29.0515C10.4574 28.0371 11.7717 27.0177 13.0853 25.9932C13.5935 27.4847 14.56 28.7774 15.8469 29.6867C16.6495 30.254 17.5615 30.6478 18.5248 30.8431C19.474 31.0196 20.4475 31.0196 21.3967 30.8431C22.3431 30.6829 23.2455 30.3266 24.0461 29.797C25.3185 30.7898 26.5966 31.775 27.869 32.7678C26.4765 34.034 24.7791 34.9168 22.943 35.3297C20.9163 35.8062 18.8042 35.7833 16.7883 35.2632C15.1939 34.8375 13.7047 34.087 12.4139 33.0588C11.0477 31.9741 9.93179 30.6072 9.14258 29.0515Z" fill="#319F43"/>
</g>
<defs>
<filter id="filter0_d_470_6459" x="22" y="2.00018" width="45" height="43" filterUnits="userSpaceOnUse" color-interpolation-filters="sRGB">
<feFlood flood-opacity="0" result="BackgroundImageFix"/>
<feColorMatrix in="SourceAlpha" type="matrix" values="0 0 0 0 0 0 0 0 0 0 0 0 0 0 0 0 0 0 127 0" result="hardAlpha"/>
<feOffset dx="6"/>
<feGaussianBlur stdDeviation="2"/>
<feComposite in2="hardAlpha" operator="out"/>
<feColorMatrix type="matrix" values="0 0 0 0 0 0 0 0 0 0 0 0 0 0 0 0 0 0 0.1 0"/>
<feBlend mode="normal" in2="BackgroundImageFix" result="effect1_dropShadow_470_6459"/>
<feBlend mode="normal" in="SourceGraphic" in2="effect1_dropShadow_470_6459" result="shape"/>
</filter>
<filter id="filter1_d_470_6459" x="0" y="0" width="50.3008" height="47.3" filterUnits="userSpaceOnUse" color-interpolation-filters="sRGB">
<feFlood flood-opacity="0" result="BackgroundImageFix"/>
<feColorMatrix in="SourceAlpha" type="matrix" values="0 0 0 0 0 0 0 0 0 0 0 0 0 0 0 0 0 0 127 0" result="hardAlpha"/>
<feOffset dx="7"/>
<feGaussianBlur stdDeviation="2"/>
<feComposite in2="hardAlpha" operator="out"/>
<feColorMatrix type="matrix" values="0 0 0 0 0 0 0 0 0 0 0 0 0 0 0 0 0 0 0.1 0"/>
<feBlend mode="normal" in2="BackgroundImageFix" result="effect1_dropShadow_470_6459"/>
<feBlend mode="normal" in="SourceGraphic" in2="effect1_dropShadow_470_6459" result="shape"/>
</filter>
</defs>
</svg>
