<svg width="17" height="13" viewBox="0 0 17 13" fill="none" xmlns="http://www.w3.org/2000/svg">
<path d="M1.59992 5.59647C5.89487 3.76188 8.75885 2.55241 10.1919 1.96805C14.2834 0.299594 15.1335 0.00976514 15.6877 9.27819e-05C15.8095 -0.00191006 16.082 0.0277027 16.2586 0.16813C16.4076 0.286703 16.4486 0.44688 16.4683 0.5593C16.4879 0.671721 16.5123 0.927819 16.4929 1.12793C16.2712 3.41192 15.3118 8.95457 14.8237 11.5127C14.6172 12.5951 14.2105 12.958 13.8168 12.9936C12.9613 13.0707 12.3116 12.4392 11.4829 11.9067C10.1862 11.0733 9.45369 10.5545 8.19503 9.74136C6.74042 8.80157 7.68338 8.28505 8.51236 7.44091C8.72931 7.21999 12.499 3.85836 12.5719 3.55341C12.5811 3.51527 12.5895 3.37311 12.5034 3.29804C12.4172 3.22297 12.2901 3.24864 12.1983 3.26906C12.0683 3.29799 9.9968 4.64035 5.98389 7.29611C5.39591 7.69195 4.86333 7.88482 4.38616 7.87472C3.86012 7.86357 2.84822 7.58311 2.09598 7.34338C1.17333 7.04933 0.440022 6.89387 0.503876 6.3945C0.537136 6.13439 0.902482 5.86838 1.59992 5.59647Z" fill="white"/>
</svg>
