<svg width="51" height="51" viewBox="0 0 51 51" fill="none" xmlns="http://www.w3.org/2000/svg">
<rect x="1" y="1" width="49" height="49" rx="24.5" stroke="white" stroke-opacity="0.25"/>
<path d="M18.5999 24.5965C22.8949 22.7619 25.7589 21.5524 27.1919 20.9681C31.2834 19.2996 32.1335 19.0098 32.6877 19.0001C32.8095 18.9981 33.082 19.0277 33.2586 19.1681C33.4076 19.2867 33.4486 19.4469 33.4683 19.5593C33.4879 19.6717 33.5123 19.9278 33.4929 20.1279C33.2712 22.4119 32.3118 27.9546 31.8237 30.5127C31.6172 31.5951 31.2105 31.958 30.8168 31.9936C29.9613 32.0707 29.3116 31.4392 28.4829 30.9067C27.1862 30.0733 26.4537 29.5545 25.195 28.7414C23.7404 27.8016 24.6834 27.2851 25.5124 26.4409C25.7293 26.22 29.499 22.8584 29.5719 22.5534C29.5811 22.5153 29.5895 22.3731 29.5034 22.298C29.4172 22.223 29.2901 22.2486 29.1983 22.2691C29.0683 22.298 26.9968 23.6403 22.9839 26.2961C22.3959 26.692 21.8633 26.8848 21.3862 26.8747C20.8601 26.8636 19.8482 26.5831 19.096 26.3434C18.1733 26.0493 17.44 25.8939 17.5039 25.3945C17.5371 25.1344 17.9025 24.8684 18.5999 24.5965Z" fill="black"/>
</svg>
