<svg width="51" height="51" viewBox="0 0 51 51" fill="none" xmlns="http://www.w3.org/2000/svg">
<rect x="1" y="1" width="49" height="49" rx="24.5" stroke="white" stroke-opacity="0.25"/>
<path fill-rule="evenodd" clip-rule="evenodd" d="M31.8 19.0875C30.1125 17.4 27.8625 16.5 25.5 16.5C20.55 16.5 16.5 20.55 16.5 25.5C16.5 27.075 16.95 28.65 17.7375 30L16.5 34.5L21.225 33.2625C22.575 33.9375 24.0375 34.3875 25.5 34.3875C30.45 34.3875 34.5 30.3375 34.5 25.3875C34.5 23.025 33.4875 20.775 31.8 19.0875ZM25.5 32.925C24.15 32.925 22.8 32.5875 21.675 31.9125L21.45 31.8L18.6375 32.5875L19.425 29.8875L19.2 29.55C18.4125 28.3125 18.075 26.9625 18.075 25.6125C18.075 21.5625 21.45 18.1875 25.5 18.1875C27.525 18.1875 29.325 18.975 30.7875 20.325C32.25 21.7875 32.925 23.5875 32.925 25.6125C32.925 29.55 29.6625 32.925 25.5 32.925ZM29.55 27.3C29.325 27.1875 28.2 26.625 27.975 26.625C27.75 26.5125 27.6375 26.5125 27.525 26.7375C27.4125 26.9625 26.9625 27.4125 26.85 27.6375C26.7375 27.75 26.625 27.75 26.4 27.75C26.175 27.6375 25.5 27.4125 24.6 26.625C23.925 26.0625 23.475 25.275 23.3625 25.05C23.25 24.825 23.3625 24.7125 23.475 24.6C23.5875 24.4875 23.7 24.375 23.8125 24.2625C23.925 24.15 23.925 24.0375 24.0375 23.925C24.15 23.8125 24.0375 23.7 24.0375 23.5875C24.0375 23.475 23.5875 22.35 23.3625 21.9C23.25 21.5625 23.025 21.5625 22.9125 21.5625C22.8 21.5625 22.6875 21.5625 22.4625 21.5625C22.35 21.5625 22.125 21.5625 21.9 21.7875C21.675 22.0125 21.1125 22.575 21.1125 23.7C21.1125 24.825 21.9 25.8375 22.0125 26.0625C22.125 26.175 23.5875 28.5375 25.8375 29.4375C27.75 30.225 28.0875 30 28.5375 30C28.9875 30 29.8875 29.4375 30 28.9875C30.225 28.425 30.225 27.975 30.1125 27.975C30 27.4125 29.775 27.4125 29.55 27.3Z" fill="black"/>
</svg>
