<svg width="19" height="19" viewBox="0 0 19 19" fill="none" xmlns="http://www.w3.org/2000/svg">
<path fill-rule="evenodd" clip-rule="evenodd" d="M15.8 3.0875C14.1125 1.4 11.8625 0.5 9.5 0.5C4.55 0.5 0.5 4.55 0.5 9.5C0.5 11.075 0.950007 12.65 1.73751 14L0.5 18.5L5.22501 17.2625C6.57501 17.9375 8.0375 18.3875 9.5 18.3875C14.45 18.3875 18.5 14.3375 18.5 9.3875C18.5 7.025 17.4875 4.775 15.8 3.0875ZM9.5 16.925C8.15 16.925 6.80001 16.5875 5.67501 15.9125L5.44999 15.8L2.63749 16.5875L3.42501 13.8875L3.19999 13.55C2.41249 12.3125 2.07499 10.9625 2.07499 9.6125C2.07499 5.5625 5.45 2.1875 9.5 2.1875C11.525 2.1875 13.325 2.975 14.7875 4.325C16.25 5.7875 16.925 7.5875 16.925 9.6125C16.925 13.55 13.6625 16.925 9.5 16.925ZM13.55 11.3C13.325 11.1875 12.2 10.625 11.975 10.625C11.75 10.5125 11.6375 10.5125 11.525 10.7375C11.4125 10.9625 10.9625 11.4125 10.85 11.6375C10.7375 11.75 10.625 11.75 10.4 11.75C10.175 11.6375 9.50001 11.4125 8.60001 10.625C7.92501 10.0625 7.47501 9.275 7.36251 9.05C7.25001 8.825 7.36251 8.7125 7.47501 8.6C7.58751 8.4875 7.7 8.375 7.8125 8.2625C7.925 8.15 7.92501 8.0375 8.03751 7.925C8.15001 7.8125 8.03751 7.7 8.03751 7.5875C8.03751 7.475 7.58751 6.35 7.36251 5.9C7.25001 5.5625 7.02501 5.5625 6.91251 5.5625C6.80001 5.5625 6.68749 5.5625 6.46249 5.5625C6.34999 5.5625 6.12499 5.5625 5.89999 5.7875C5.67499 6.0125 5.11251 6.575 5.11251 7.7C5.11251 8.825 5.89999 9.8375 6.01249 10.0625C6.12499 10.175 7.58749 12.5375 9.83749 13.4375C11.75 14.225 12.0875 14 12.5375 14C12.9875 14 13.8875 13.4375 14 12.9875C14.225 12.425 14.225 11.975 14.1125 11.975C14 11.4125 13.775 11.4125 13.55 11.3Z" fill="white"/>
</svg>
