<svg width="51" height="51" viewBox="0 0 51 51" fill="none" xmlns="http://www.w3.org/2000/svg">
<rect x="1" y="1" width="49" height="49" rx="24.5" stroke="white" stroke-opacity="0.25"/>
<path d="M35.95 19.9286C35.675 18.9286 34.9875 18.2143 34.025 17.9286C32.375 17.5 25.3625 17.5 25.3625 17.5C25.3625 17.5 18.4875 17.5 16.7 17.9286C15.7375 18.2143 15.05 18.9286 14.775 19.9286C14.5 21.7857 14.5 25.5 14.5 25.5C14.5 25.5 14.5 29.2143 14.9125 31.0714C15.1875 32.0714 15.875 32.7857 16.8375 33.0714C18.4875 33.5 25.5 33.5 25.5 33.5C25.5 33.5 32.375 33.5 34.1625 33.0714C35.125 32.7857 35.8125 32.0714 36.0875 31.0714C36.5 29.2143 36.5 25.5 36.5 25.5C36.5 25.5 36.5 21.7857 35.95 19.9286ZM23.3 28.9286V22.0714L29.075 25.5L23.3 28.9286Z" fill="black"/>
</svg>
