<svg width="23" height="17" viewBox="0 0 23 17" fill="none" xmlns="http://www.w3.org/2000/svg">
<path d="M21.95 2.92857C21.675 1.92857 20.9875 1.21429 20.025 0.928572C18.375 0.5 11.3625 0.5 11.3625 0.5C11.3625 0.5 4.48751 0.5 2.70001 0.928572C1.73751 1.21429 1.05 1.92857 0.774996 2.92857C0.499996 4.78572 0.5 8.5 0.5 8.5C0.5 8.5 0.500004 12.2143 0.912504 14.0714C1.1875 15.0714 1.875 15.7857 2.8375 16.0714C4.4875 16.5 11.5 16.5 11.5 16.5C11.5 16.5 18.375 16.5 20.1625 16.0714C21.125 15.7857 21.8125 15.0714 22.0875 14.0714C22.5 12.2143 22.5 8.5 22.5 8.5C22.5 8.5 22.5 4.78572 21.95 2.92857ZM9.29999 11.9286V5.07143L15.075 8.5L9.29999 11.9286Z" fill="white"/>
</svg>
