<svg width="26" height="27" viewBox="0 0 26 27" fill="none" xmlns="http://www.w3.org/2000/svg">
<g clip-path="url(#clip0_959_6010)">
<path d="M13 0.75C5.9688 0.75 0.25 6.4688 0.25 13.5C0.25 20.5312 5.9688 26.25 13 26.25C20.0312 26.25 25.75 20.5312 25.75 13.5C25.75 6.4688 20.0312 0.75 13 0.75ZM13 24.55C6.9072 24.55 1.95 19.5928 1.95 13.5C1.95 7.4072 6.9072 2.45 13 2.45C19.0928 2.45 24.05 7.4072 24.05 13.5C24.05 19.5928 19.0928 24.55 13 24.55Z" fill="white"/>
<path d="M5.36914 21.1293L16.0502 16.5512L20.6283 5.87012L9.94724 10.4482L5.36914 21.1293ZM10.8822 12.5851L13.915 15.6179L8.60764 17.8925L10.8822 12.5851ZM15.1152 14.4143L12.0841 11.3832L17.3915 9.10862L15.1152 14.4143Z" fill="white"/>
</g>
<defs>
<clipPath id="clip0_959_6010">
<rect width="25.5" height="25.5" fill="white" transform="translate(0.25 0.75)"/>
</clipPath>
</defs>
</svg>
