<svg width="27" height="27" viewBox="0 0 27 27" fill="none" xmlns="http://www.w3.org/2000/svg">
<g clip-path="url(#clip0_470_6862)">
<path d="M13.5 0.75C6.4688 0.75 0.75 6.4688 0.75 13.5C0.75 20.5312 6.4688 26.25 13.5 26.25C20.5312 26.25 26.25 20.5312 26.25 13.5C26.25 6.4688 20.5312 0.75 13.5 0.75ZM13.5 24.55C7.4072 24.55 2.45 19.5928 2.45 13.5C2.45 7.4072 7.4072 2.45 13.5 2.45C19.5928 2.45 24.55 7.4072 24.55 13.5C24.55 19.5928 19.5928 24.55 13.5 24.55Z" fill="black"/>
<path d="M5.86914 21.1293L16.5502 16.5512L21.1283 5.87012L10.4472 10.4482L5.86914 21.1293ZM11.3822 12.5851L14.415 15.6179L9.10764 17.8925L11.3822 12.5851ZM15.6152 14.4143L12.5841 11.3832L17.8915 9.10862L15.6152 14.4143Z" fill="black"/>
</g>
<defs>
<clipPath id="clip0_470_6862">
<rect width="25.5" height="25.5" fill="white" transform="translate(0.75 0.75)"/>
</clipPath>
</defs>
</svg>
