<svg width="27" height="27" viewBox="0 0 27 27" fill="none" xmlns="http://www.w3.org/2000/svg">
<path d="M20.0147 15.2143C19.9411 15.126 19.8398 15.0651 19.7272 15.0416C19.6146 15.0181 19.4974 15.0333 19.3945 15.0848L13.503 18.0306L7.61151 15.0848C7.50876 15.0333 7.39164 15.018 7.27913 15.0415C7.16662 15.0649 7.06532 15.1256 6.99164 15.2138C6.91797 15.302 6.87624 15.4125 6.87322 15.5274C6.87021 15.6423 6.90608 15.7548 6.97503 15.8467L13.095 24.0067C13.1011 24.0149 13.1113 24.018 13.1185 24.0261C13.1525 24.0663 13.1928 24.1008 13.2378 24.1281C13.2539 24.1406 13.271 24.1519 13.2888 24.1618C13.3553 24.1953 13.4286 24.2128 13.503 24.2128C13.5774 24.2128 13.6508 24.1953 13.7172 24.1618C13.7351 24.1519 13.7521 24.1406 13.7682 24.1281C13.8132 24.1008 13.8535 24.0663 13.8876 24.0261C13.8947 24.018 13.9049 24.0149 13.911 24.0067L20.031 15.8467C20.0999 15.7549 20.1357 15.6425 20.1328 15.5277C20.1298 15.4129 20.0882 15.3025 20.0147 15.2143ZM12.993 18.9159V22.1707L9.08745 16.9687L12.993 18.9159ZM14.013 22.1707V18.9159L17.9186 16.9687L14.013 22.1707Z" fill="black"/>
<path d="M6.88733 13.5603C6.88683 13.5883 6.88888 13.6163 6.89345 13.6439C6.89855 13.6602 6.91079 13.6725 6.91691 13.6878C6.91934 13.7019 6.92275 13.7159 6.92711 13.7296C6.93323 13.7428 6.94853 13.7479 6.95567 13.7602C6.98983 13.8168 7.03491 13.866 7.08827 13.905C7.10561 13.9173 7.11785 13.9315 7.13519 13.9417C7.15253 13.9519 7.14743 13.954 7.15457 13.957L13.2746 17.017H13.2888C13.3555 17.0499 13.4288 17.067 13.503 17.067C13.5773 17.067 13.6506 17.0499 13.7172 17.017H13.7315L19.8515 13.957C19.8665 13.9467 19.8808 13.9355 19.8944 13.9234C19.9263 13.9034 19.9557 13.8798 19.9821 13.853C20.0047 13.83 20.0248 13.8047 20.0423 13.7775C20.0554 13.7622 20.0676 13.7462 20.079 13.7296C20.0861 13.7143 20.0851 13.699 20.0912 13.6847C20.0992 13.6715 20.1063 13.6579 20.1126 13.6439C20.1142 13.6256 20.1142 13.6072 20.1126 13.5888C20.1199 13.5536 20.1226 13.5176 20.1208 13.4817C20.1197 13.4519 20.1159 13.4222 20.1096 13.393C20.1012 13.3577 20.0889 13.3235 20.0729 13.291C20.0685 13.2747 20.0631 13.2586 20.0565 13.243L13.9365 3.04305C13.9294 3.03183 13.9161 3.02775 13.909 3.01755C13.8643 2.95022 13.8037 2.89499 13.7325 2.85678C13.6613 2.81858 13.5818 2.79858 13.501 2.79858C13.4202 2.79858 13.3407 2.81858 13.2695 2.85678C13.1983 2.89499 13.1377 2.95022 13.093 3.01755C13.0859 3.02775 13.0726 3.03183 13.0655 3.04305L6.94547 13.243C6.90476 13.3154 6.88236 13.3967 6.88019 13.4797C6.88019 13.4889 6.87305 13.496 6.87305 13.5052C6.87664 13.5238 6.88141 13.5422 6.88733 13.5603ZM12.993 15.7359L8.52341 13.5011L12.993 11.2663V15.7359ZM14.013 11.2663L18.4827 13.5011L14.013 15.7359V11.2663ZM14.013 10.1259V5.14221L18.2838 12.2608L14.013 10.1259ZM12.993 10.1259L8.72129 12.2618L12.993 5.14221V10.1259Z" fill="black"/>
</svg>
