<svg width="26" height="27" viewBox="0 0 26 27" fill="none" xmlns="http://www.w3.org/2000/svg">
<path d="M19.5147 15.2142C19.4411 15.1259 19.3398 15.065 19.2272 15.0415C19.1146 15.018 18.9974 15.0332 18.8945 15.0847L13.003 18.0304L7.11151 15.0847C7.00876 15.0332 6.89164 15.0179 6.77913 15.0413C6.66662 15.0648 6.56532 15.1255 6.49164 15.2137C6.41797 15.3019 6.37624 15.4124 6.37322 15.5273C6.37021 15.6421 6.40608 15.7547 6.47503 15.8466L12.595 24.0066C12.6011 24.0148 12.6113 24.0178 12.6185 24.026C12.6525 24.0662 12.6928 24.1006 12.7378 24.128C12.7539 24.1405 12.771 24.1517 12.7888 24.1617C12.8553 24.1952 12.9286 24.2127 13.003 24.2127C13.0774 24.2127 13.1508 24.1952 13.2172 24.1617C13.2351 24.1517 13.2521 24.1405 13.2682 24.128C13.3132 24.1006 13.3535 24.0662 13.3876 24.026C13.3947 24.0178 13.4049 24.0148 13.411 24.0066L19.531 15.8466C19.5999 15.7547 19.6357 15.6423 19.6328 15.5276C19.6298 15.4128 19.5882 15.3024 19.5147 15.2142ZM12.493 18.9158V22.1706L8.58745 16.9686L12.493 18.9158ZM13.513 22.1706V18.9158L17.4186 16.9686L13.513 22.1706Z" fill="white"/>
<path d="M6.38733 13.5603C6.38683 13.5883 6.38888 13.6163 6.39345 13.6439C6.39855 13.6602 6.41079 13.6725 6.41691 13.6878C6.41934 13.7019 6.42275 13.7159 6.42711 13.7296C6.43323 13.7428 6.44853 13.7479 6.45567 13.7602C6.48983 13.8168 6.53491 13.866 6.58827 13.905C6.60561 13.9173 6.61785 13.9315 6.63519 13.9417C6.65253 13.9519 6.64743 13.954 6.65457 13.957L12.7746 17.017H12.7888C12.8555 17.0499 12.9288 17.067 13.003 17.067C13.0773 17.067 13.1506 17.0499 13.2172 17.017H13.2315L19.3515 13.957C19.3665 13.9467 19.3808 13.9355 19.3944 13.9234C19.4263 13.9034 19.4557 13.8798 19.4821 13.853C19.5047 13.83 19.5248 13.8047 19.5423 13.7775C19.5554 13.7622 19.5676 13.7462 19.579 13.7296C19.5861 13.7143 19.5851 13.699 19.5912 13.6847C19.5992 13.6715 19.6063 13.6579 19.6126 13.6439C19.6142 13.6256 19.6142 13.6072 19.6126 13.5888C19.6199 13.5536 19.6226 13.5176 19.6208 13.4817C19.6197 13.4519 19.6159 13.4222 19.6096 13.393C19.6012 13.3577 19.5889 13.3235 19.5729 13.291C19.5685 13.2747 19.5631 13.2586 19.5565 13.243L13.4365 3.04305C13.4294 3.03183 13.4161 3.02775 13.409 3.01755C13.3643 2.95022 13.3037 2.89499 13.2325 2.85678C13.1613 2.81858 13.0818 2.79858 13.001 2.79858C12.9202 2.79858 12.8407 2.81858 12.7695 2.85678C12.6983 2.89499 12.6377 2.95022 12.593 3.01755C12.5859 3.02775 12.5726 3.03183 12.5655 3.04305L6.44547 13.243C6.40476 13.3154 6.38236 13.3967 6.38019 13.4797C6.38019 13.4889 6.37305 13.496 6.37305 13.5052C6.37664 13.5238 6.38141 13.5422 6.38733 13.5603ZM12.493 15.7359L8.02341 13.5011L12.493 11.2663V15.7359ZM13.513 11.2663L17.9827 13.5011L13.513 15.7359V11.2663ZM13.513 10.1259V5.14221L17.7838 12.2608L13.513 10.1259ZM12.493 10.1259L8.22129 12.2618L12.493 5.14221V10.1259Z" fill="white"/>
</svg>
