<svg width="27" height="27" viewBox="0 0 27 27" fill="none" xmlns="http://www.w3.org/2000/svg">
<path d="M13.5 11.1094C13.7113 11.1094 13.914 11.1933 14.0635 11.3428C14.2129 11.4922 14.2969 11.6949 14.2969 11.9062H15.8906C15.8886 11.4136 15.7344 10.9336 15.4491 10.5319C15.1638 10.1302 14.7614 9.82647 14.2969 9.66225V8.71875H12.7031V9.66225C12.1719 9.84937 11.724 10.2185 11.4388 10.7042C11.1536 11.1899 11.0495 11.7609 11.1449 12.316C11.2404 12.8711 11.5292 13.3745 11.9602 13.7371C12.3913 14.0996 12.9367 14.2979 13.5 14.2969C13.6576 14.2969 13.8117 14.3436 13.9427 14.4312C14.0738 14.5187 14.1759 14.6432 14.2362 14.7888C14.2965 14.9344 14.3123 15.0946 14.2816 15.2492C14.2508 15.4038 14.1749 15.5458 14.0635 15.6572C13.952 15.7687 13.81 15.8446 13.6555 15.8753C13.5009 15.9061 13.3407 15.8903 13.195 15.83C13.0494 15.7697 12.925 15.6675 12.8374 15.5365C12.7499 15.4054 12.7031 15.2514 12.7031 15.0938H11.1094C11.1114 15.5864 11.2656 16.0664 11.5509 16.4681C11.8362 16.8698 12.2386 17.1735 12.7031 17.3378V18.2812H14.2969V17.3378C14.8281 17.1506 15.276 16.7815 15.5612 16.2958C15.8464 15.8101 15.9505 15.2391 15.8551 14.684C15.7596 14.1289 15.4708 13.6255 15.0398 13.2629C14.6087 12.9004 14.0633 12.7021 13.5 12.7031C13.2887 12.7031 13.086 12.6192 12.9365 12.4697C12.7871 12.3203 12.7031 12.1176 12.7031 11.9062C12.7031 11.6949 12.7871 11.4922 12.9365 11.3428C13.086 11.1933 13.2887 11.1094 13.5 11.1094Z" fill="black"/>
<path d="M14.2969 2.34375H12.7031V4.73438H14.2969V2.34375Z" fill="black"/>
<path d="M24.6562 12.7031H22.2656V14.2969H24.6562V12.7031Z" fill="black"/>
<path d="M4.73438 12.7031H2.34375V14.2969H4.73438V12.7031Z" fill="black"/>
<path d="M20.8213 5.04615L19.1309 6.73657L20.2578 7.86352L21.9482 6.1731L20.8213 5.04615Z" fill="black"/>
<path d="M6.17383 5.04834L5.04688 6.17529L6.7373 7.86572L7.86425 6.73877L6.17383 5.04834Z" fill="black"/>
<path d="M20.2578 19.1365L19.1309 20.2634L20.8213 21.9539L21.9482 20.8269L20.2578 19.1365Z" fill="black"/>
<path d="M6.7373 19.1375L5.04688 20.8279L6.17383 21.9548L7.86425 20.2644L6.7373 19.1375Z" fill="black"/>
<path d="M19.0486 7.78215C18.2854 7.03428 17.3782 6.44924 16.3821 6.06255C15.386 5.67585 14.3217 5.49554 13.2538 5.53257C11.1824 5.60939 9.22132 6.48518 7.78159 7.97631C6.34187 9.46743 5.53539 11.4581 5.53125 13.5308C5.5329 14.7452 5.81408 15.9429 6.35302 17.0311C6.89195 18.1193 7.67416 19.0689 8.63906 19.8062C8.91567 20.0269 9.13836 20.3078 9.29024 20.6274C9.44212 20.9471 9.5192 21.2971 9.51562 21.651V23.8607C9.51562 24.072 9.59958 24.2747 9.74902 24.4242C9.89847 24.5736 10.1012 24.6576 10.3125 24.6576H16.6875C16.8988 24.6576 17.1015 24.5736 17.251 24.4242C17.4004 24.2747 17.4844 24.072 17.4844 23.8607V21.6518C17.4867 21.2852 17.5728 20.9241 17.7358 20.5958C17.8989 20.2676 18.1348 19.9809 18.4255 19.7576C19.3189 19.056 20.0518 18.1713 20.5749 17.1629C21.098 16.1546 21.3992 15.0459 21.4582 13.9115C21.5172 12.777 21.3327 11.6431 20.9171 10.5859C20.5015 9.52868 19.8644 8.57268 19.0486 7.78215ZM11.1094 23.0638V22.2669H15.8906V23.0638H11.1094ZM17.4398 18.5041C16.7396 19.0507 16.2396 19.8132 16.0173 20.6732H10.9851C10.7789 19.8294 10.295 19.0795 9.61125 18.5439C8.83937 17.9542 8.21362 17.1947 7.78247 16.3243C7.35133 15.4538 7.12636 14.4958 7.125 13.5244C7.12839 11.8664 7.77353 10.2741 8.92517 9.08131C10.0768 7.88852 11.6455 7.18789 13.3024 7.12632C14.6444 7.0828 15.9658 7.4645 17.0779 8.21687C18.19 8.96925 19.0359 10.0538 19.4947 11.3157C19.9536 12.5776 20.002 13.9521 19.6329 15.2431C19.2638 16.5341 18.4962 17.6754 17.4398 18.5041Z" fill="black"/>
</svg>
