<svg width="26" height="27" viewBox="0 0 26 27" fill="none" xmlns="http://www.w3.org/2000/svg">
<path d="M13 11.1094C13.2113 11.1094 13.414 11.1933 13.5635 11.3428C13.7129 11.4922 13.7969 11.6949 13.7969 11.9062H15.3906C15.3886 11.4136 15.2344 10.9336 14.9491 10.5319C14.6638 10.1302 14.2614 9.82647 13.7969 9.66225V8.71875H12.2031V9.66225C11.6719 9.84937 11.224 10.2185 10.9388 10.7042C10.6536 11.1899 10.5495 11.7609 10.6449 12.316C10.7404 12.8711 11.0292 13.3745 11.4602 13.7371C11.8913 14.0996 12.4367 14.2979 13 14.2969C13.1576 14.2969 13.3117 14.3436 13.4427 14.4312C13.5738 14.5187 13.6759 14.6432 13.7362 14.7888C13.7965 14.9344 13.8123 15.0946 13.7816 15.2492C13.7508 15.4038 13.6749 15.5458 13.5635 15.6572C13.452 15.7687 13.31 15.8446 13.1555 15.8753C13.0009 15.9061 12.8407 15.8903 12.695 15.83C12.5494 15.7697 12.425 15.6675 12.3374 15.5365C12.2499 15.4054 12.2031 15.2514 12.2031 15.0938H10.6094C10.6114 15.5864 10.7656 16.0664 11.0509 16.4681C11.3362 16.8698 11.7386 17.1735 12.2031 17.3378V18.2812H13.7969V17.3378C14.3281 17.1506 14.776 16.7815 15.0612 16.2958C15.3464 15.8101 15.4505 15.2391 15.3551 14.684C15.2596 14.1289 14.9708 13.6255 14.5398 13.2629C14.1087 12.9004 13.5633 12.7021 13 12.7031C12.7887 12.7031 12.586 12.6192 12.4365 12.4697C12.2871 12.3203 12.2031 12.1176 12.2031 11.9062C12.2031 11.6949 12.2871 11.4922 12.4365 11.3428C12.586 11.1933 12.7887 11.1094 13 11.1094Z" fill="white"/>
<path d="M13.7969 2.34375H12.2031V4.73438H13.7969V2.34375Z" fill="white"/>
<path d="M24.1562 12.7031H21.7656V14.2969H24.1562V12.7031Z" fill="white"/>
<path d="M4.23438 12.7031H1.84375V14.2969H4.23438V12.7031Z" fill="white"/>
<path d="M20.3213 5.04615L18.6309 6.73657L19.7578 7.86352L21.4482 6.1731L20.3213 5.04615Z" fill="white"/>
<path d="M5.67383 5.04834L4.54688 6.17529L6.2373 7.86572L7.36425 6.73877L5.67383 5.04834Z" fill="white"/>
<path d="M19.7578 19.1365L18.6309 20.2634L20.3213 21.9539L21.4482 20.8269L19.7578 19.1365Z" fill="white"/>
<path d="M6.2373 19.1375L4.54688 20.8279L5.67383 21.9548L7.36425 20.2644L6.2373 19.1375Z" fill="white"/>
<path d="M18.5486 7.78215C17.7854 7.03428 16.8782 6.44924 15.8821 6.06255C14.886 5.67585 13.8217 5.49554 12.7538 5.53257C10.6824 5.60939 8.72132 6.48518 7.28159 7.97631C5.84187 9.46743 5.03539 11.4581 5.03125 13.5308C5.0329 14.7452 5.31408 15.9429 5.85302 17.0311C6.39195 18.1193 7.17416 19.0689 8.13906 19.8062C8.41567 20.0269 8.63836 20.3078 8.79024 20.6274C8.94212 20.9471 9.0192 21.2971 9.01562 21.651V23.8607C9.01562 24.072 9.09958 24.2747 9.24902 24.4242C9.39847 24.5736 9.60116 24.6576 9.8125 24.6576H16.1875C16.3988 24.6576 16.6015 24.5736 16.751 24.4242C16.9004 24.2747 16.9844 24.072 16.9844 23.8607V21.6518C16.9867 21.2852 17.0728 20.9241 17.2358 20.5958C17.3989 20.2676 17.6348 19.9809 17.9255 19.7576C18.8189 19.056 19.5518 18.1713 20.0749 17.1629C20.598 16.1546 20.8992 15.0459 20.9582 13.9115C21.0172 12.777 20.8327 11.6431 20.4171 10.5859C20.0015 9.52868 19.3644 8.57268 18.5486 7.78215ZM10.6094 23.0638V22.2669H15.3906V23.0638H10.6094ZM16.9398 18.5041C16.2396 19.0507 15.7396 19.8132 15.5173 20.6732H10.4851C10.2789 19.8294 9.79504 19.0795 9.11125 18.5439C8.33937 17.9542 7.71362 17.1947 7.28247 16.3243C6.85133 15.4538 6.62636 14.4958 6.625 13.5244C6.62839 11.8664 7.27353 10.2741 8.42517 9.08131C9.5768 7.88852 11.1455 7.18789 12.8024 7.12632C14.1444 7.0828 15.4658 7.4645 16.5779 8.21687C17.69 8.96925 18.5359 10.0538 18.9947 11.3157C19.4536 12.5776 19.502 13.9521 19.1329 15.2431C18.7638 16.5341 17.9962 17.6754 16.9398 18.5041Z" fill="white"/>
</svg>
