<svg width="27" height="27" viewBox="0 0 27 27" fill="none" xmlns="http://www.w3.org/2000/svg">
<path d="M17.47 7.62305C17.2595 7.62682 17.0591 7.71376 16.9124 7.86486C16.7658 8.01596 16.6849 8.21895 16.6875 8.42948V11.4975L11.4704 8.08284C11.1293 7.85892 10.734 7.686 10.2814 7.66608C10.0349 7.65756 9.78929 7.69954 9.55962 7.78943C9.32994 7.87933 9.12108 8.01525 8.94586 8.18883C8.7991 8.33769 8.71693 8.5384 8.71716 8.74744V18.2478C8.71556 18.4582 8.79923 18.6622 8.94586 18.8128C9.12137 18.9856 9.3304 19.1208 9.56008 19.2099C9.78976 19.2989 10.0352 19.3401 10.2814 19.3307C10.7333 19.3092 11.1293 19.1411 11.4704 18.918L16.6875 15.4986V18.5649C16.7106 19.6049 18.2597 19.6049 18.2812 18.5649V8.42948C18.2828 8.32276 18.2628 8.21682 18.2225 8.11797C18.1822 8.01913 18.1224 7.92941 18.0467 7.85416C17.971 7.77891 17.881 7.71966 17.7819 7.67996C17.6828 7.64025 17.5767 7.6209 17.47 7.62305ZM16.6708 13.394C16.7536 13.441 16.7616 13.5462 16.6708 13.5996L10.5946 17.5824C10.3643 17.7362 10.3085 17.6708 10.3117 17.5641V9.44231C10.3149 9.16181 10.4703 9.33633 10.5946 9.41123L16.6708 13.394ZM13.5 1.54688C6.90825 1.54688 1.54688 6.90745 1.54688 13.5C1.54688 20.0902 6.90825 25.4531 13.5 25.4531C20.091 25.4531 25.4531 20.0902 25.4531 13.5C25.4531 6.90586 20.091 1.54688 13.5 1.54688ZM13.5 3.14062C19.2295 3.14062 23.8594 7.76967 23.8594 13.5C23.8578 19.2287 19.2295 23.8594 13.5 23.8594C7.76967 23.8594 3.14062 19.2287 3.14062 13.5C3.14062 7.76967 7.76967 3.14062 13.5 3.14062Z" fill="black"/>
</svg>
