<svg width="26" height="27" viewBox="0 0 26 27" fill="none" xmlns="http://www.w3.org/2000/svg">
<path d="M16.97 7.62305C16.7595 7.62682 16.5591 7.71376 16.4124 7.86486C16.2658 8.01596 16.1849 8.21895 16.1875 8.42948V11.4975L10.9704 8.08284C10.6293 7.85892 10.234 7.686 9.78142 7.66608C9.53493 7.65756 9.28929 7.69954 9.05962 7.78943C8.82994 7.87933 8.62108 8.01525 8.44586 8.18883C8.2991 8.33769 8.21693 8.5384 8.21716 8.74744V18.2478C8.21556 18.4582 8.29923 18.6622 8.44586 18.8128C8.62137 18.9856 8.8304 19.1208 9.06008 19.2099C9.28976 19.2989 9.53525 19.3401 9.78142 19.3307C10.2333 19.3092 10.6293 19.1411 10.9704 18.918L16.1875 15.4986V18.5649C16.2106 19.6049 17.7597 19.6049 17.7812 18.5649V8.42948C17.7828 8.32276 17.7628 8.21682 17.7225 8.11797C17.6822 8.01913 17.6224 7.92941 17.5467 7.85416C17.471 7.77891 17.381 7.71966 17.2819 7.67996C17.1828 7.64025 17.0767 7.6209 16.97 7.62305ZM16.1708 13.394C16.2536 13.441 16.2616 13.5462 16.1708 13.5996L10.0946 17.5824C9.8643 17.7362 9.80852 17.6708 9.8117 17.5641V9.44231C9.81489 9.16181 9.97028 9.33633 10.0946 9.41123L16.1708 13.394ZM13 1.54688C6.40825 1.54688 1.04688 6.90745 1.04688 13.5C1.04688 20.0902 6.40825 25.4531 13 25.4531C19.591 25.4531 24.9531 20.0902 24.9531 13.5C24.9531 6.90586 19.591 1.54688 13 1.54688ZM13 3.14062C18.7295 3.14062 23.3594 7.76967 23.3594 13.5C23.3578 19.2287 18.7295 23.8594 13 23.8594C7.26967 23.8594 2.64062 19.2287 2.64062 13.5C2.64062 7.76967 7.26967 3.14062 13 3.14062Z" fill="white"/>
</svg>
