<svg width="26" height="27" viewBox="0 0 26 27" fill="none" xmlns="http://www.w3.org/2000/svg">
<path fill-rule="evenodd" clip-rule="evenodd" d="M13 11.3741C12.4364 11.3741 11.8959 11.598 11.4974 11.9965C11.0989 12.395 10.875 12.9355 10.875 13.4991C10.875 14.0627 11.0989 14.6032 11.4974 15.0017C11.8959 15.4002 12.4364 15.6241 13 15.6241C13.5636 15.6241 14.1041 15.4002 14.5026 15.0017C14.9011 14.6032 15.125 14.0627 15.125 13.4991C15.125 12.9355 14.9011 12.395 14.5026 11.9965C14.1041 11.598 13.5636 11.3741 13 11.3741ZM9.8125 13.4991C9.8125 12.6537 10.1483 11.843 10.7461 11.2452C11.3439 10.6474 12.1546 10.3116 13 10.3116C13.8454 10.3116 14.6561 10.6474 15.2539 11.2452C15.8517 11.843 16.1875 12.6537 16.1875 13.4991C16.1875 14.3445 15.8517 15.1552 15.2539 15.753C14.6561 16.3508 13.8454 16.6866 13 16.6866C12.1546 16.6866 11.3439 16.3508 10.7461 15.753C10.1483 15.1552 9.8125 14.3445 9.8125 13.4991ZM9.24938 9.61992C7.16688 11.7609 7.16688 15.2374 9.24938 17.3783L8.4865 18.1199C6.0045 15.5657 6.0045 11.4325 8.4865 8.8783L9.24831 9.61992H9.24938ZM16.7506 17.3783C18.8331 15.2374 18.8331 11.7609 16.7506 9.61992L17.5135 8.8783C19.9955 11.4325 19.9955 15.5657 17.5135 18.1199L16.7517 17.3783H16.7506Z" fill="white"/>
<path fill-rule="evenodd" clip-rule="evenodd" d="M6.98991 7.49871C6.2009 8.28581 5.57492 9.22082 5.1478 10.2502C4.72069 11.2796 4.50084 12.3831 4.50084 13.4976C4.50084 14.6121 4.72069 15.7156 5.1478 16.745C5.57492 17.7743 6.2009 18.7094 6.98991 19.4965L6.23872 20.2487C5.35077 19.3629 4.64628 18.3107 4.1656 17.1522C3.68492 15.9937 3.4375 14.7518 3.4375 13.4976C3.4375 12.2434 3.68492 11.0014 4.1656 9.84298C4.64628 8.68452 5.35077 7.63225 6.23872 6.74646L6.98991 7.49871ZM19.011 19.4965C19.8 18.7094 20.426 17.7743 20.8531 16.745C21.2803 15.7156 21.5001 14.6121 21.5001 13.4976C21.5001 12.3831 21.2803 11.2796 20.8531 10.2502C20.426 9.22082 19.8 8.28581 19.011 7.49871L19.7622 6.74646C20.6502 7.63225 21.3547 8.68452 21.8353 9.84298C22.316 11.0014 22.5634 12.2434 22.5634 13.4976C22.5634 14.7518 22.316 15.9937 21.8353 17.1522C21.3547 18.3107 20.6502 19.3629 19.7622 20.2487L19.011 19.4965Z" fill="white"/>
</svg>
