<svg width="27" height="27" viewBox="0 0 27 27" fill="none" xmlns="http://www.w3.org/2000/svg">
<path fill-rule="evenodd" clip-rule="evenodd" d="M13.5 11.374C12.9364 11.374 12.3959 11.5979 11.9974 11.9964C11.5989 12.3949 11.375 12.9354 11.375 13.499C11.375 14.0626 11.5989 14.6031 11.9974 15.0016C12.3959 15.4001 12.9364 15.624 13.5 15.624C14.0636 15.624 14.6041 15.4001 15.0026 15.0016C15.4011 14.6031 15.625 14.0626 15.625 13.499C15.625 12.9354 15.4011 12.3949 15.0026 11.9964C14.6041 11.5979 14.0636 11.374 13.5 11.374ZM10.3125 13.499C10.3125 12.6536 10.6483 11.8429 11.2461 11.2451C11.8439 10.6473 12.6546 10.3115 13.5 10.3115C14.3454 10.3115 15.1561 10.6473 15.7539 11.2451C16.3517 11.8429 16.6875 12.6536 16.6875 13.499C16.6875 14.3444 16.3517 15.1551 15.7539 15.7529C15.1561 16.3507 14.3454 16.6865 13.5 16.6865C12.6546 16.6865 11.8439 16.3507 11.2461 15.7529C10.6483 15.1551 10.3125 14.3444 10.3125 13.499ZM9.74938 9.6198C7.66688 11.7607 7.66688 15.2372 9.74938 17.3782L8.9865 18.1198C6.5045 15.5655 6.5045 11.4324 8.9865 8.87817L9.74831 9.6198H9.74938ZM17.2506 17.3782C19.3331 15.2372 19.3331 11.7607 17.2506 9.6198L18.0135 8.87817C20.4955 11.4324 20.4955 15.5655 18.0135 18.1198L17.2517 17.3782H17.2506Z" fill="black"/>
<path fill-rule="evenodd" clip-rule="evenodd" d="M7.48991 7.49883C6.7009 8.28593 6.07492 9.22094 5.6478 10.2503C5.22069 11.2797 5.00084 12.3832 5.00084 13.4977C5.00084 14.6122 5.22069 15.7157 5.6478 16.7451C6.07492 17.7745 6.7009 18.7095 7.48991 19.4966L6.73872 20.2488C5.85077 19.363 5.14628 18.3108 4.6656 17.1523C4.18492 15.9938 3.9375 14.7519 3.9375 13.4977C3.9375 12.2435 4.18492 11.0016 4.6656 9.8431C5.14628 8.68464 5.85077 7.63238 6.73872 6.74658L7.48991 7.49883ZM19.511 19.4966C20.3 18.7095 20.926 17.7745 21.3531 16.7451C21.7803 15.7157 22.0001 14.6122 22.0001 13.4977C22.0001 12.3832 21.7803 11.2797 21.3531 10.2503C20.926 9.22094 20.3 8.28593 19.511 7.49883L20.2622 6.74658C21.1502 7.63238 21.8547 8.68464 22.3353 9.8431C22.816 11.0016 23.0634 12.2435 23.0634 13.4977C23.0634 14.7519 22.816 15.9938 22.3353 17.1523C21.8547 18.3108 21.1502 19.363 20.2622 20.2488L19.511 19.4966Z" fill="black"/>
</svg>
