<svg width="26" height="27" viewBox="0 0 26 27" fill="none" xmlns="http://www.w3.org/2000/svg">
<path d="M13 23.0613C13.5872 23.0613 14.0625 22.5855 14.0625 21.9988C14.0625 21.4121 13.5872 20.9363 13 20.9363C8.89939 20.9363 5.5625 17.5999 5.5625 13.4988C5.5625 9.39764 8.89939 6.06129 13 6.06129C15.1125 6.06129 17.0989 6.97759 18.4928 8.50674L16.5901 8.84929C16.0131 8.95352 15.6293 9.50612 15.7331 10.0835C15.8254 10.5976 16.2737 10.9577 16.7779 10.9577C16.8402 10.9577 16.9035 10.9525 16.9678 10.9411L21.4046 10.1417C21.6816 10.0913 21.9276 9.93314 22.0884 9.70173C22.2493 9.47032 22.3115 9.18451 22.2617 8.90741L21.4618 4.47062C21.357 3.89315 20.8112 3.50672 20.227 3.61307C19.6501 3.71731 19.2662 4.26991 19.37 4.84727L19.7016 6.68412C17.9348 4.95214 15.5329 3.93629 13 3.93629C7.72692 3.93629 3.4375 8.22624 3.4375 13.4988C3.4375 18.7713 7.72692 23.0613 13 23.0613Z" fill="white"/>
<path d="M21.5 14.5591C22.0868 14.5591 22.5625 14.0834 22.5625 13.4966C22.5625 12.9098 22.0868 12.4341 21.5 12.4341C20.9132 12.4341 20.4375 12.9098 20.4375 13.4966C20.4375 14.0834 20.9132 14.5591 21.5 14.5591Z" fill="white"/>
<path d="M21.2814 18.2812C21.5748 17.7731 21.4007 17.1232 20.8926 16.8299C20.3844 16.5364 19.7345 16.7106 19.4412 17.2188C19.1477 17.7269 19.3219 18.3767 19.8301 18.6701C20.3382 18.9636 20.988 18.7894 21.2814 18.2812ZM17.7812 21.7813C18.2894 21.488 18.4636 20.8382 18.1701 20.33C17.8768 19.8218 17.2268 19.6476 16.7188 19.9411C16.2106 20.2346 16.0364 20.8844 16.3299 21.3925C16.6232 21.9007 17.2731 22.0748 17.7812 21.7813ZM13 9.25C12.4128 9.25 11.9375 9.72579 11.9375 10.3125V13.5C11.9375 13.7817 12.0496 14.052 12.2488 14.2512L14.3738 16.3762C14.5813 16.5837 14.8531 16.6875 15.125 16.6875C15.3969 16.6875 15.6687 16.5837 15.8762 16.3762C16.2912 15.9612 16.2912 15.2888 15.8762 14.8737L14.0625 13.06V10.3125C14.0625 9.72579 13.5872 9.25 13 9.25Z" fill="white"/>
</svg>
