<svg width="27" height="27" viewBox="0 0 27 27" fill="none" xmlns="http://www.w3.org/2000/svg">
<path d="M13.5 23.0613C14.0872 23.0613 14.5625 22.5855 14.5625 21.9988C14.5625 21.4121 14.0872 20.9363 13.5 20.9363C9.39939 20.9363 6.0625 17.5999 6.0625 13.4988C6.0625 9.39764 9.39939 6.06129 13.5 6.06129C15.6125 6.06129 17.5989 6.97759 18.9928 8.50674L17.0901 8.84929C16.5131 8.95352 16.1293 9.50612 16.2331 10.0835C16.3254 10.5976 16.7737 10.9577 17.2779 10.9577C17.3402 10.9577 17.4035 10.9525 17.4678 10.9411L21.9046 10.1417C22.1816 10.0913 22.4276 9.93314 22.5884 9.70173C22.7493 9.47032 22.8115 9.18451 22.7617 8.90741L21.9618 4.47062C21.857 3.89315 21.3112 3.50672 20.727 3.61307C20.1501 3.71731 19.7662 4.26991 19.87 4.84727L20.2016 6.68412C18.4348 4.95214 16.0329 3.93629 13.5 3.93629C8.22692 3.93629 3.9375 8.22624 3.9375 13.4988C3.9375 18.7713 8.22692 23.0613 13.5 23.0613Z" fill="black"/>
<path d="M22 14.5591C22.5868 14.5591 23.0625 14.0834 23.0625 13.4966C23.0625 12.9098 22.5868 12.4341 22 12.4341C21.4132 12.4341 20.9375 12.9098 20.9375 13.4966C20.9375 14.0834 21.4132 14.5591 22 14.5591Z" fill="black"/>
<path d="M21.7814 18.2812C22.0748 17.7731 21.9007 17.1232 21.3926 16.8299C20.8844 16.5364 20.2345 16.7106 19.9412 17.2188C19.6477 17.7269 19.8219 18.3767 20.3301 18.6701C20.8382 18.9636 21.488 18.7894 21.7814 18.2812ZM18.2812 21.7813C18.7894 21.488 18.9636 20.8382 18.6701 20.33C18.3768 19.8218 17.7268 19.6476 17.2188 19.9411C16.7106 20.2346 16.5364 20.8844 16.8299 21.3925C17.1232 21.9007 17.7731 22.0748 18.2812 21.7813ZM13.5 9.25C12.9128 9.25 12.4375 9.72579 12.4375 10.3125V13.5C12.4375 13.7817 12.5496 14.052 12.7488 14.2512L14.8738 16.3762C15.0813 16.5837 15.3531 16.6875 15.625 16.6875C15.8969 16.6875 16.1687 16.5837 16.3762 16.3762C16.7912 15.9612 16.7912 15.2888 16.3762 14.8737L14.5625 13.06V10.3125C14.5625 9.72579 14.0872 9.25 13.5 9.25Z" fill="black"/>
</svg>
