<svg width="27" height="27" viewBox="0 0 27 27" fill="none" xmlns="http://www.w3.org/2000/svg">
<path d="M23.0629 8.71875V12.3224C23.0628 12.3629 23.0508 12.4025 23.0283 12.4362C23.0057 12.4699 22.9738 12.4961 22.9363 12.5116C22.8989 12.5271 22.8577 12.5311 22.818 12.5232C22.7783 12.5154 22.7418 12.4959 22.7131 12.4673L21.6176 11.3717L18.5091 14.4802C18.4755 14.5137 18.4314 14.5345 18.3841 14.5391C18.3369 14.5437 18.2896 14.5318 18.2502 14.5054L16.2612 13.1797L13.6445 15.142C13.6106 15.1674 13.5697 15.1817 13.5274 15.183C13.4851 15.1842 13.4434 15.1723 13.4081 15.1488L11.4512 13.8429L8.11052 16.0696C8.03515 16.1197 7.94296 16.1379 7.8542 16.1201C7.76544 16.1023 7.68738 16.05 7.63718 15.9746L7.06889 15.1222C7.01875 15.0468 7.00059 14.9546 7.01839 14.8659C7.03619 14.7771 7.08851 14.6991 7.16383 14.6489L11.3379 11.8662C11.3716 11.8438 11.4111 11.8319 11.4516 11.8319C11.492 11.8319 11.5316 11.8438 11.5653 11.8662L13.4717 13.1373L16.0884 11.1749C16.1222 11.1495 16.1631 11.1352 16.2055 11.134C16.2478 11.1328 16.2894 11.1447 16.3247 11.1681L18.173 12.401L20.4099 10.1641L19.3144 9.06846C19.2857 9.03981 19.2662 9.00331 19.2584 8.96359C19.2505 8.92386 19.2545 8.88269 19.27 8.84527C19.2855 8.80785 19.3117 8.77586 19.3454 8.75334C19.3791 8.73082 19.4187 8.71879 19.4592 8.71875H23.0629ZM21.3553 19.3058H20.6722C20.5817 19.3058 20.4948 19.2698 20.4307 19.2058C20.3667 19.1417 20.3307 19.0549 20.3307 18.9643V14.5246C20.3307 14.434 20.3667 14.3471 20.4307 14.2831C20.4948 14.219 20.5817 14.183 20.6722 14.183H21.3553C21.4458 14.183 21.5327 14.219 21.5968 14.2831C21.6608 14.3471 21.6968 14.434 21.6968 14.5246V18.9643C21.6968 19.0549 21.6608 19.1417 21.5968 19.2058C21.5327 19.2698 21.4458 19.3058 21.3553 19.3058ZM15.891 19.3058H15.2079C15.1174 19.3058 15.0305 19.2698 14.9665 19.2058C14.9024 19.1417 14.8664 19.0549 14.8664 18.9643V15.8906C14.8664 15.8 14.9024 15.7132 14.9665 15.6491C15.0305 15.5851 15.1174 15.5491 15.2079 15.5491H15.891C15.9816 15.5491 16.0684 15.5851 16.1325 15.6491C16.1965 15.7132 16.2325 15.8 16.2325 15.8906V18.9643C16.2325 19.0549 16.1965 19.1417 16.1325 19.2058C16.0684 19.2698 15.9816 19.3058 15.891 19.3058ZM13.1588 19.3058H12.4758C12.3852 19.3058 12.2984 19.2698 12.2343 19.2058C12.1703 19.1417 12.1343 19.0549 12.1343 18.9643V17.2567C12.1343 17.1661 12.1703 17.0793 12.2343 17.0152C12.2984 16.9512 12.3852 16.9152 12.4758 16.9152H13.1588C13.2494 16.9152 13.3363 16.9512 13.4003 17.0152C13.4644 17.0793 13.5004 17.1661 13.5004 17.2567V18.9643C13.5004 19.0549 13.4644 19.1417 13.4003 19.2058C13.3363 19.2698 13.2494 19.3058 13.1588 19.3058ZM18.6231 19.3058H17.9401C17.8495 19.3058 17.7626 19.2698 17.6986 19.2058C17.6346 19.1417 17.5986 19.0549 17.5986 18.9643V16.5737C17.5986 16.4831 17.6346 16.3962 17.6986 16.3322C17.7626 16.2681 17.8495 16.2321 17.9401 16.2321H18.6231C18.7137 16.2321 18.8006 16.2681 18.8646 16.3322C18.9287 16.3962 18.9646 16.4831 18.9646 16.5737V18.9643C18.9646 19.0549 18.9287 19.1417 18.8646 19.2058C18.8006 19.2698 18.7137 19.3058 18.6231 19.3058Z" fill="black"/>
<path d="M22.7244 20.3322C22.9129 20.3322 23.0625 20.4852 23.0625 20.6737V21.3568C23.0625 21.4473 23.0265 21.5342 22.9625 21.5982C22.8984 21.6623 22.8116 21.6983 22.721 21.6983H4.62054C4.43938 21.6983 4.26565 21.6263 4.13756 21.4982C4.00946 21.3701 3.9375 21.1964 3.9375 21.0152V5.64694C3.9375 5.55636 3.97348 5.4695 4.03753 5.40545C4.10158 5.3414 4.18844 5.30542 4.27902 5.30542H4.96205C5.05263 5.30542 5.1395 5.3414 5.20354 5.40545C5.26759 5.4695 5.30357 5.55636 5.30357 5.64694V20.3322H22.7244Z" fill="black"/>
<path d="M7.69057 19.304H7.00753C6.91696 19.304 6.83009 19.268 6.76604 19.2039C6.702 19.1399 6.66602 19.053 6.66602 18.9624V17.9379C6.66602 17.8473 6.702 17.7604 6.76604 17.6964C6.83009 17.6323 6.91696 17.5964 7.00753 17.5964H7.69057C7.78115 17.5964 7.86801 17.6323 7.93206 17.6964C7.99611 17.7604 8.03209 17.8473 8.03209 17.9379V18.9624C8.03209 19.053 7.99611 19.1399 7.93206 19.2039C7.86801 19.268 7.78115 19.304 7.69057 19.304ZM10.4227 19.304H9.73968C9.6491 19.304 9.56223 19.268 9.49819 19.2039C9.43414 19.1399 9.39816 19.053 9.39816 18.9624V17.2548C9.39816 17.1643 9.43414 17.0774 9.49819 17.0134C9.56223 16.9493 9.6491 16.9133 9.73968 16.9133H10.4227C10.5133 16.9133 10.6002 16.9493 10.6642 17.0134C10.7282 17.0774 10.7642 17.1643 10.7642 17.2548V18.9624C10.7642 19.053 10.7282 19.1399 10.6642 19.2039C10.6002 19.268 10.5133 19.304 10.4227 19.304Z" fill="black"/>
</svg>
