<svg width="26" height="27" viewBox="0 0 26 27" fill="none" xmlns="http://www.w3.org/2000/svg">
<path d="M22.5629 8.71875V12.3224C22.5628 12.3629 22.5508 12.4025 22.5283 12.4362C22.5057 12.4699 22.4738 12.4961 22.4363 12.5116C22.3989 12.5271 22.3577 12.5311 22.318 12.5232C22.2783 12.5154 22.2418 12.4959 22.2131 12.4673L21.1176 11.3717L18.0091 14.4802C17.9755 14.5137 17.9314 14.5345 17.8841 14.5391C17.8369 14.5437 17.7896 14.5318 17.7502 14.5054L15.7612 13.1797L13.1445 15.142C13.1106 15.1674 13.0697 15.1817 13.0274 15.183C12.9851 15.1842 12.9434 15.1723 12.9081 15.1488L10.9512 13.8429L7.61052 16.0696C7.53515 16.1197 7.44296 16.1379 7.3542 16.1201C7.26544 16.1023 7.18738 16.05 7.13718 15.9746L6.56889 15.1222C6.51875 15.0468 6.50059 14.9546 6.51839 14.8659C6.53619 14.7771 6.58851 14.6991 6.66383 14.6489L10.8379 11.8662C10.8716 11.8438 10.9111 11.8319 10.9516 11.8319C10.992 11.8319 11.0316 11.8438 11.0653 11.8662L12.9717 13.1373L15.5884 11.1749C15.6222 11.1495 15.6631 11.1352 15.7055 11.134C15.7478 11.1328 15.7894 11.1447 15.8247 11.1681L17.673 12.401L19.9099 10.1641L18.8144 9.06846C18.7857 9.03981 18.7662 9.00331 18.7584 8.96359C18.7505 8.92386 18.7545 8.88269 18.77 8.84527C18.7855 8.80785 18.8117 8.77586 18.8454 8.75334C18.8791 8.73082 18.9187 8.71879 18.9592 8.71875H22.5629ZM20.8553 19.3058H20.1722C20.0817 19.3058 19.9948 19.2698 19.9307 19.2058C19.8667 19.1417 19.8307 19.0549 19.8307 18.9643V14.5246C19.8307 14.434 19.8667 14.3471 19.9307 14.2831C19.9948 14.219 20.0817 14.183 20.1722 14.183H20.8553C20.9458 14.183 21.0327 14.219 21.0968 14.2831C21.1608 14.3471 21.1968 14.434 21.1968 14.5246V18.9643C21.1968 19.0549 21.1608 19.1417 21.0968 19.2058C21.0327 19.2698 20.9458 19.3058 20.8553 19.3058ZM15.391 19.3058H14.7079C14.6174 19.3058 14.5305 19.2698 14.4665 19.2058C14.4024 19.1417 14.3664 19.0549 14.3664 18.9643V15.8906C14.3664 15.8 14.4024 15.7132 14.4665 15.6491C14.5305 15.5851 14.6174 15.5491 14.7079 15.5491H15.391C15.4816 15.5491 15.5684 15.5851 15.6325 15.6491C15.6965 15.7132 15.7325 15.8 15.7325 15.8906V18.9643C15.7325 19.0549 15.6965 19.1417 15.6325 19.2058C15.5684 19.2698 15.4816 19.3058 15.391 19.3058ZM12.6588 19.3058H11.9758C11.8852 19.3058 11.7984 19.2698 11.7343 19.2058C11.6703 19.1417 11.6343 19.0549 11.6343 18.9643V17.2567C11.6343 17.1661 11.6703 17.0793 11.7343 17.0152C11.7984 16.9512 11.8852 16.9152 11.9758 16.9152H12.6588C12.7494 16.9152 12.8363 16.9512 12.9003 17.0152C12.9644 17.0793 13.0004 17.1661 13.0004 17.2567V18.9643C13.0004 19.0549 12.9644 19.1417 12.9003 19.2058C12.8363 19.2698 12.7494 19.3058 12.6588 19.3058ZM18.1231 19.3058H17.4401C17.3495 19.3058 17.2626 19.2698 17.1986 19.2058C17.1346 19.1417 17.0986 19.0549 17.0986 18.9643V16.5737C17.0986 16.4831 17.1346 16.3962 17.1986 16.3322C17.2626 16.2681 17.3495 16.2321 17.4401 16.2321H18.1231C18.2137 16.2321 18.3006 16.2681 18.3646 16.3322C18.4287 16.3962 18.4646 16.4831 18.4646 16.5737V18.9643C18.4646 19.0549 18.4287 19.1417 18.3646 19.2058C18.3006 19.2698 18.2137 19.3058 18.1231 19.3058Z" fill="white"/>
<path d="M22.2244 20.3322C22.4129 20.3322 22.5625 20.4852 22.5625 20.6737V21.3568C22.5625 21.4473 22.5265 21.5342 22.4625 21.5982C22.3984 21.6623 22.3116 21.6983 22.221 21.6983H4.12054C3.93938 21.6983 3.76565 21.6263 3.63756 21.4982C3.50946 21.3701 3.4375 21.1964 3.4375 21.0152V5.64694C3.4375 5.55636 3.47348 5.4695 3.53753 5.40545C3.60158 5.3414 3.68844 5.30542 3.77902 5.30542H4.46205C4.55263 5.30542 4.6395 5.3414 4.70354 5.40545C4.76759 5.4695 4.80357 5.55636 4.80357 5.64694V20.3322H22.2244Z" fill="white"/>
<path d="M7.19057 19.304H6.50753C6.41696 19.304 6.33009 19.268 6.26604 19.2039C6.202 19.1399 6.16602 19.053 6.16602 18.9624V17.9379C6.16602 17.8473 6.202 17.7604 6.26604 17.6964C6.33009 17.6323 6.41696 17.5964 6.50753 17.5964H7.19057C7.28115 17.5964 7.36801 17.6323 7.43206 17.6964C7.49611 17.7604 7.53209 17.8473 7.53209 17.9379V18.9624C7.53209 19.053 7.49611 19.1399 7.43206 19.2039C7.36801 19.268 7.28115 19.304 7.19057 19.304ZM9.92271 19.304H9.23968C9.1491 19.304 9.06223 19.268 8.99819 19.2039C8.93414 19.1399 8.89816 19.053 8.89816 18.9624V17.2548C8.89816 17.1643 8.93414 17.0774 8.99819 17.0134C9.06223 16.9493 9.1491 16.9133 9.23968 16.9133H9.92271C10.0133 16.9133 10.1002 16.9493 10.1642 17.0134C10.2282 17.0774 10.2642 17.1643 10.2642 17.2548V18.9624C10.2642 19.053 10.2282 19.1399 10.1642 19.2039C10.1002 19.268 10.0133 19.304 9.92271 19.304Z" fill="white"/>
</svg>
