<svg width="39" height="45" viewBox="0 0 39 45" fill="none" xmlns="http://www.w3.org/2000/svg">
<path d="M37.9999 30.6375V14.1931C37.9991 13.4722 37.8088 12.7641 37.448 12.1399C37.0872 11.5158 36.5687 10.9975 35.9443 10.637L21.5555 2.4148C20.9305 2.05397 20.2216 1.86401 19.4999 1.86401C18.7783 1.86401 18.0693 2.05397 17.4444 2.4148L3.05555 10.637C2.4312 10.9975 1.91262 11.5158 1.55184 12.1399C1.19105 12.7641 1.00074 13.4722 1 14.1931V30.6375C1.00074 31.3584 1.19105 32.0665 1.55184 32.6906C1.91262 33.3148 2.4312 33.8331 3.05555 34.1936L17.4444 42.4158C18.0693 42.7766 18.7783 42.9665 19.4999 42.9665C20.2216 42.9665 20.9305 42.7766 21.5555 42.4158L35.9443 34.1936C36.5687 33.8331 37.0872 33.3148 37.448 32.6906C37.8088 32.0665 37.9991 31.3584 37.9999 30.6375Z" stroke="black" stroke-width="2" stroke-linecap="round" stroke-linejoin="round"/>
<path d="M10.25 6.40259L19.5 11.747L28.7499 6.40259" stroke="black" stroke-width="2" stroke-linecap="round" stroke-linejoin="round"/>
<path d="M10.25 38.4285V27.7602L1 22.4158" stroke="black" stroke-width="2" stroke-linecap="round" stroke-linejoin="round"/>
<path d="M38 22.4158L28.75 27.7602V38.4285" stroke="black" stroke-width="2" stroke-linecap="round" stroke-linejoin="round"/>
<path d="M1.55469 12.0552L19.4996 22.4357L37.4445 12.0552" stroke="black" stroke-width="2" stroke-linecap="round" stroke-linejoin="round"/>
<path d="M19.5 43.1357V22.4158" stroke="black" stroke-width="2" stroke-linecap="round" stroke-linejoin="round"/>
</svg>
