<svg width="25" height="24" viewBox="0 0 25 24" fill="none" xmlns="http://www.w3.org/2000/svg">
<path d="M12.6191 3C7.64859 3 3.61914 7.02945 3.61914 12C3.61914 16.9705 7.64859 21 12.6191 21C17.5897 21 21.6191 16.9705 21.6191 12C21.6191 7.02945 17.5897 3 12.6191 3ZM19.4945 9.00052C19.8958 9.9189 20.1197 10.9335 20.1197 12.0007C20.1197 13.068 19.8958 14.0826 19.4945 15.001H16.1124C16.2778 14.0705 16.3679 13.059 16.3679 12.0007C16.3679 10.9425 16.2777 9.93097 16.1124 9.00052H19.4945ZM10.3705 12.0007C10.3705 10.9231 10.4531 9.9039 10.6035 9.00052H14.6334C14.7838 9.9039 14.8679 10.923 14.8679 12.0007C14.8679 13.0786 14.7838 14.0977 14.6334 15.001H10.6051C10.4548 14.0977 10.3705 13.0786 10.3705 12.0007ZM18.6197 7.5003H15.7637C15.4149 6.3294 14.9369 5.3659 14.3732 4.70751C16.0704 5.11627 17.5721 6.10387 18.6197 7.5003ZM12.6191 5.25167C13.285 5.25167 13.8848 6.12199 14.2967 7.50187H10.9417C11.3535 6.12055 11.9533 5.25167 12.6191 5.25167ZM10.865 4.70909C10.3013 5.36594 9.82329 6.33247 9.47604 7.50187H6.62004C7.66719 6.10572 9.16839 5.11817 10.865 4.70909ZM5.74382 9.00052H9.12587C8.96049 9.93097 8.87027 10.9425 8.87027 12.0007C8.87027 13.059 8.96057 14.0705 9.12587 15.001H5.74379C5.33035 14.0549 5.11746 13.0333 5.1185 12.0007C5.1185 10.9335 5.34252 9.9189 5.74382 9.00052ZM6.61869 16.5011H9.47469C9.82344 17.672 10.3014 18.6355 10.865 19.294C9.16787 18.8851 7.66629 17.8975 6.61869 16.5011ZM12.6191 18.7498C11.9533 18.7498 11.3535 17.8795 10.9416 16.4995H14.2966C13.8818 17.8809 13.2851 18.7498 12.6191 18.7498ZM14.3732 19.2925C14.9369 18.6356 15.4149 17.6691 15.7622 16.4996H18.6182C17.571 17.8958 16.0699 18.8834 14.3732 19.2925Z" fill="#B3BEC1"/>
</svg>
