<svg width="24" height="24" viewBox="0 0 24 24" fill="none" xmlns="http://www.w3.org/2000/svg">
<path fill-rule="evenodd" clip-rule="evenodd" d="M14.1025 16.3007C12.8842 17.2777 11.3376 17.8621 9.65443 17.8621C5.72472 17.8621 2.53906 14.6764 2.53906 10.7467C2.53906 6.81701 5.72472 3.63135 9.65443 3.63135C13.5841 3.63135 16.7698 6.81701 16.7698 10.7467C16.7698 12.4471 16.1733 14.0082 15.1782 15.2322L15.9168 15.9708L14.8447 17.0429L14.1025 16.3007ZM14.5027 10.7466C14.5027 13.4242 12.332 15.5948 9.65444 15.5948C6.97683 15.5948 4.80619 13.4242 4.80619 10.7466C4.80619 8.06896 6.97683 5.89833 9.65444 5.89833C12.332 5.89833 14.5027 8.06896 14.5027 10.7466Z" fill="#B3BEC1"/>
<path fill-rule="evenodd" clip-rule="evenodd" d="M18.7108 21.0376C18.5763 21.1721 18.3582 21.1718 18.2241 21.0369L14.7092 17.5001C14.5758 17.3658 14.5761 17.1488 14.71 17.0149L15.8992 15.8257C16.0337 15.6912 16.2519 15.6916 16.3859 15.8265L19.9008 19.3632C20.0343 19.4975 20.034 19.7145 19.9001 19.8484L18.7108 21.0376Z" fill="#B3BEC1"/>
<path d="M22.881 4.7869C22.2736 5.03857 21.7887 5.26507 21.4263 5.46641C21.0672 5.66775 20.7871 5.8674 20.5857 6.06539C20.3877 6.26337 20.1881 6.54188 19.9867 6.90093C19.7854 7.25998 19.5555 7.75158 19.2972 8.37572H19.0908C18.8291 7.75158 18.5975 7.25998 18.3962 6.90093C18.1948 6.54188 17.9969 6.26337 17.8022 6.06539C17.6009 5.8674 17.319 5.66775 16.9566 5.46641C16.5976 5.26507 16.1127 5.03857 15.502 4.7869V4.58053C16.116 4.32886 16.6026 4.10235 16.9617 3.90102C17.3241 3.69968 17.6043 3.50002 17.8022 3.30204C17.9969 3.10406 18.1948 2.82554 18.3962 2.46649C18.5975 2.10744 18.8291 1.61584 19.0908 0.991699H19.2972C19.5555 1.61584 19.7854 2.10744 19.9867 2.46649C20.1881 2.82554 20.3877 3.10406 20.5857 3.30204C20.7803 3.50002 21.0572 3.69968 21.4162 3.90102C21.7786 4.10235 22.2669 4.32886 22.881 4.58053V4.7869Z" fill="#B3BEC1"/>
</svg>
