<svg width="26" height="26" viewBox="0 0 26 26" fill="none" xmlns="http://www.w3.org/2000/svg">
<path d="M20.325 18.4413V12.3823L16.5261 16.3198L12.7949 19.499L17.0443 20.8432C18.1546 21.1944 18.709 21.3701 19.15 21.2543C19.5358 21.1529 19.8688 20.9089 20.0817 20.5715C20.3242 20.1857 20.3242 19.6045 20.3242 18.4406L20.325 18.4413Z" fill="black"/>
<path fill-rule="evenodd" clip-rule="evenodd" d="M5.42323 6.69826C4.9082 7.70941 4.9082 9.03241 4.9082 11.6784V11.98C4.9082 14.626 4.9082 15.949 5.42323 16.9602C5.87622 17.8492 6.59903 18.572 7.48805 19.025C8.4992 19.54 9.8222 19.54 12.4682 19.54H12.7706C15.4166 19.54 16.7396 19.54 17.7508 19.025C18.6398 18.572 19.3626 17.8492 19.8156 16.9602C20.3306 15.9498 20.3306 14.6268 20.3306 11.98V11.6784C20.3306 9.03241 20.3306 7.70941 19.8156 6.69826C19.3626 5.80923 18.6398 5.08643 17.7508 4.63343C16.7396 4.11841 15.4166 4.11841 12.7706 4.11841H12.4682C9.8222 4.11841 8.4992 4.11841 7.48805 4.63343C6.59903 5.08643 5.87622 5.80923 5.42323 6.69826ZM10.3656 12.8557H14.9331C15.1953 12.8557 15.326 12.8557 15.4434 12.9321C15.5308 12.9888 15.6229 13.1203 15.6466 13.2227C15.6781 13.3589 15.6418 13.4566 15.5702 13.6503C15.2394 14.5512 14.4188 15.5891 12.7171 15.5891C11.0405 15.5891 10.1474 14.5827 9.74345 13.6913C9.6521 13.4904 9.60722 13.3904 9.63163 13.2463C9.6603 13.1235 9.73072 13.0144 9.83087 12.9376C9.95135 12.8557 10.0892 12.8557 10.3656 12.8557Z" fill="#B3BEC1"/>
</svg>
